<?xml version="1.0" encoding="utf-8" standalone="no"?>
<!DOCTYPE svg PUBLIC "-//W3C//DTD SVG 1.1//EN"
  "http://www.w3.org/Graphics/SVG/1.1/DTD/svg11.dtd">
<svg xmlns:xlink="http://www.w3.org/1999/xlink" width="576pt" height="576pt" viewBox="0 0 576 576" xmlns="http://www.w3.org/2000/svg" version="1.1">
 <metadata>
  <rdf:RDF xmlns:dc="http://purl.org/dc/elements/1.1/" xmlns:cc="http://creativecommons.org/ns#" xmlns:rdf="http://www.w3.org/1999/02/22-rdf-syntax-ns#">
   <cc:Work>
    <dc:type rdf:resource="http://purl.org/dc/dcmitype/StillImage"/>
    <dc:date>2025-07-25T12:05:53.748697</dc:date>
    <dc:format>image/svg+xml</dc:format>
    <dc:creator>
     <cc:Agent>
      <dc:title>Matplotlib v3.9.2, https://matplotlib.org/</dc:title>
     </cc:Agent>
    </dc:creator>
   </cc:Work>
  </rdf:RDF>
 </metadata>
 <defs>
  <style type="text/css">*{stroke-linejoin: round; stroke-linecap: butt}</style>
 </defs>
 <g id="figure_1">
  <g id="patch_1">
   <path d="M 0 576 
L 576 576 
L 576 0 
L 0 0 
L 0 576 
z
" style="fill: none"/>
  </g>
  <g id="axes_1">
   <g id="patch_2">
    <path d="M 512.64 286.56 
C 512.64 258.006041 507.015493 229.729733 496.088366 203.349314 
C 485.161238 176.968896 469.143997 152.9974 448.953299 132.806701 
C 428.7626 112.616003 404.791104 96.598762 378.410686 85.671634 
C 352.030267 74.744507 323.753959 69.12 295.2 69.12 
C 266.646041 69.12 238.369733 74.744507 211.989314 85.671634 
C 185.608896 96.598762 161.6374 112.616003 141.446701 132.806701 
C 121.256003 152.9974 105.238762 176.968896 94.311634 203.349314 
C 83.384507 229.729733 77.76 258.006041 77.76 286.56 
C 77.76 315.113959 83.384507 343.390267 94.311634 369.770686 
C 105.238762 396.151104 121.256003 420.1226 141.446701 440.313299 
C 161.6374 460.503997 185.608896 476.521238 211.989314 487.448366 
C 238.369733 498.375493 266.646041 504 295.2 504 
C 323.753959 504 352.030267 498.375493 378.410686 487.448366 
C 404.791104 476.521238 428.7626 460.503997 448.953299 440.313299 
C 469.143997 420.1226 485.161238 396.151104 496.088366 369.770686 
C 507.015493 343.390267 512.64 315.113959 512.64 286.56 
M 295.2 286.56 
C 295.2 286.56 295.2 286.56 295.2 286.56 
C 295.2 286.56 295.2 286.56 295.2 286.56 
C 295.2 286.56 295.2 286.56 295.2 286.56 
C 295.2 286.56 295.2 286.56 295.2 286.56 
C 295.2 286.56 295.2 286.56 295.2 286.56 
C 295.2 286.56 295.2 286.56 295.2 286.56 
C 295.2 286.56 295.2 286.56 295.2 286.56 
C 295.2 286.56 295.2 286.56 295.2 286.56 
C 295.2 286.56 295.2 286.56 295.2 286.56 
C 295.2 286.56 295.2 286.56 295.2 286.56 
C 295.2 286.56 295.2 286.56 295.2 286.56 
C 295.2 286.56 295.2 286.56 295.2 286.56 
C 295.2 286.56 295.2 286.56 295.2 286.56 
C 295.2 286.56 295.2 286.56 295.2 286.56 
C 295.2 286.56 295.2 286.56 295.2 286.56 
C 295.2 286.56 295.2 286.56 295.2 286.56 
z
" style="fill: #ffffff"/>
   </g>
   <g id="patch_3">
    <path d="M 502.542228 286.56 
L 502.124781 273.409543 
L 500.874121 260.312039 
L 498.795284 247.320225 
L 495.896641 234.486417 
L 492.189863 221.86229 
L 487.689876 209.498678 
L 482.4148 197.445365 
L 476.385877 185.750885 
L 469.627382 174.462328 
L 462.16653 163.625149 
L 454.033362 153.282985 
L 445.260628 143.47748 
L 435.883653 134.248118 
L 425.940195 125.632063 
L 415.470292 117.664007 
L 404.516103 110.376036 
L 393.121737 103.797496 
L 381.333074 97.954875 
L 369.197584 92.871701 
L 356.764132 88.568441 
L 344.082783 85.062424 
L 331.2046 82.367766 
L 318.181439 80.495318 
L 305.06574 79.45262 
L 291.910316 79.24387 
L 278.768137 79.86991 
L 265.692124 81.328217 
L 252.734929 83.61292 
L 239.948726 86.714819 
L 227.385 90.621425 
L 215.094341 95.317005 
L 203.126239 100.782654 
L 191.528886 106.996363 
L 180.34898 113.933111 
L 169.631538 121.564967 
L 159.419716 129.861199 
L 149.754634 138.788402 
L 140.675208 148.31063 
L 132.218 158.389538 
L 124.417062 168.984544 
L 117.303807 180.052985 
L 110.906878 191.550292 
L 105.252031 203.430169 
L 100.362038 215.644781 
L 96.256589 228.144944 
L 92.952214 240.880323 
L 90.462221 253.799638 
L 88.796633 266.850868 
L 87.96216 279.98146 
L 87.96216 293.13854 
L 88.796633 306.269132 
L 90.462221 319.320362 
L 92.952214 332.239677 
L 96.256589 344.975056 
L 100.362038 357.475219 
L 105.252031 369.689831 
L 110.906878 381.569708 
L 117.303807 393.067015 
L 124.417062 404.135456 
L 132.218 414.730462 
L 140.675208 424.80937 
L 149.754634 434.331598 
L 159.419716 443.258801 
L 169.631538 451.555033 
L 180.34898 459.186889 
L 191.528886 466.123637 
L 203.126239 472.337346 
L 215.094341 477.802995 
L 227.385 482.498575 
L 239.948726 486.405181 
L 252.734929 489.50708 
L 265.692124 491.791783 
L 278.768137 493.25009 
L 291.910316 493.87613 
L 305.06574 493.66738 
L 318.181439 492.624682 
L 331.2046 490.752234 
L 344.082783 488.057576 
L 356.764132 484.551559 
L 369.197584 480.248299 
L 381.333074 475.165125 
L 393.121737 469.322504 
L 404.516103 462.743964 
L 415.470292 455.455993 
L 425.940195 447.487937 
L 435.883653 438.871882 
L 445.260628 429.64252 
L 454.033362 419.837015 
L 462.16653 409.494851 
L 469.627382 398.657672 
L 476.385877 387.369115 
L 482.4148 375.674635 
L 487.689876 363.621322 
L 492.189863 351.25771 
L 495.896641 338.633583 
L 498.795284 325.799775 
L 500.874121 312.807961 
L 502.124781 299.710457 
L 502.542228 286.56 
z
" clip-path="url(#p6f012a50cc)" style="fill: #808080; opacity: 0.2; stroke: #808080; stroke-linejoin: miter"/>
   </g>
   <g id="matplotlib.axis_1">
    <g id="xtick_1">
     <g id="line2d_1">
      <path d="M 295.2 286.56 
L 512.64 286.56 
" clip-path="url(#p6f012a50cc)" style="fill: none; stroke: #b0b0b0; stroke-width: 0.8; stroke-linecap: square"/>
     </g>
     <g id="text_1">
      <!-- 0° -->
      <g transform="translate(520.95875 289.319375) scale(0.1 -0.1)">
       <defs>
        <path id="DejaVuSans-30" d="M 2034 4250 
Q 1547 4250 1301 3770 
Q 1056 3291 1056 2328 
Q 1056 1369 1301 889 
Q 1547 409 2034 409 
Q 2525 409 2770 889 
Q 3016 1369 3016 2328 
Q 3016 3291 2770 3770 
Q 2525 4250 2034 4250 
z
M 2034 4750 
Q 2819 4750 3233 4129 
Q 3647 3509 3647 2328 
Q 3647 1150 3233 529 
Q 2819 -91 2034 -91 
Q 1250 -91 836 529 
Q 422 1150 422 2328 
Q 422 3509 836 4129 
Q 1250 4750 2034 4750 
z
" transform="scale(0.015625)"/>
        <path id="DejaVuSans-b0" d="M 1600 4347 
Q 1350 4347 1178 4173 
Q 1006 4000 1006 3750 
Q 1006 3503 1178 3333 
Q 1350 3163 1600 3163 
Q 1850 3163 2022 3333 
Q 2194 3503 2194 3750 
Q 2194 3997 2020 4172 
Q 1847 4347 1600 4347 
z
M 1600 4750 
Q 1800 4750 1984 4673 
Q 2169 4597 2303 4453 
Q 2447 4313 2519 4134 
Q 2591 3956 2591 3750 
Q 2591 3338 2302 3052 
Q 2013 2766 1594 2766 
Q 1172 2766 890 3047 
Q 609 3328 609 3750 
Q 609 4169 896 4459 
Q 1184 4750 1600 4750 
z
" transform="scale(0.015625)"/>
       </defs>
       <use xlink:href="#DejaVuSans-30"/>
       <use xlink:href="#DejaVuSans-b0" x="63.623047"/>
      </g>
     </g>
    </g>
    <g id="xtick_2">
     <g id="line2d_2">
      <path d="M 295.2 286.56 
L 448.953299 132.806701 
" clip-path="url(#p6f012a50cc)" style="fill: none; stroke: #b0b0b0; stroke-width: 0.8; stroke-linecap: square"/>
     </g>
     <g id="text_2">
      <!-- 45° -->
      <g transform="translate(449.990293 125.666582) scale(0.1 -0.1)">
       <defs>
        <path id="DejaVuSans-34" d="M 2419 4116 
L 825 1625 
L 2419 1625 
L 2419 4116 
z
M 2253 4666 
L 3047 4666 
L 3047 1625 
L 3713 1625 
L 3713 1100 
L 3047 1100 
L 3047 0 
L 2419 0 
L 2419 1100 
L 313 1100 
L 313 1709 
L 2253 4666 
z
" transform="scale(0.015625)"/>
        <path id="DejaVuSans-35" d="M 691 4666 
L 3169 4666 
L 3169 4134 
L 1269 4134 
L 1269 2991 
Q 1406 3038 1543 3061 
Q 1681 3084 1819 3084 
Q 2600 3084 3056 2656 
Q 3513 2228 3513 1497 
Q 3513 744 3044 326 
Q 2575 -91 1722 -91 
Q 1428 -91 1123 -41 
Q 819 9 494 109 
L 494 744 
Q 775 591 1075 516 
Q 1375 441 1709 441 
Q 2250 441 2565 725 
Q 2881 1009 2881 1497 
Q 2881 1984 2565 2268 
Q 2250 2553 1709 2553 
Q 1456 2553 1204 2497 
Q 953 2441 691 2322 
L 691 4666 
z
" transform="scale(0.015625)"/>
       </defs>
       <use xlink:href="#DejaVuSans-34"/>
       <use xlink:href="#DejaVuSans-35" x="63.623047"/>
       <use xlink:href="#DejaVuSans-b0" x="127.246094"/>
      </g>
     </g>
    </g>
    <g id="xtick_3">
     <g id="line2d_3">
      <path d="M 295.2 286.56 
L 295.2 69.12 
" clip-path="url(#p6f012a50cc)" style="fill: none; stroke: #b0b0b0; stroke-width: 0.8; stroke-linecap: square"/>
     </g>
     <g id="text_3">
      <!-- 90° -->
      <g transform="translate(286.3375 57.879375) scale(0.1 -0.1)">
       <defs>
        <path id="DejaVuSans-39" d="M 703 97 
L 703 672 
Q 941 559 1184 500 
Q 1428 441 1663 441 
Q 2288 441 2617 861 
Q 2947 1281 2994 2138 
Q 2813 1869 2534 1725 
Q 2256 1581 1919 1581 
Q 1219 1581 811 2004 
Q 403 2428 403 3163 
Q 403 3881 828 4315 
Q 1253 4750 1959 4750 
Q 2769 4750 3195 4129 
Q 3622 3509 3622 2328 
Q 3622 1225 3098 567 
Q 2575 -91 1691 -91 
Q 1453 -91 1209 -44 
Q 966 3 703 97 
z
M 1959 2075 
Q 2384 2075 2632 2365 
Q 2881 2656 2881 3163 
Q 2881 3666 2632 3958 
Q 2384 4250 1959 4250 
Q 1534 4250 1286 3958 
Q 1038 3666 1038 3163 
Q 1038 2656 1286 2365 
Q 1534 2075 1959 2075 
z
" transform="scale(0.015625)"/>
       </defs>
       <use xlink:href="#DejaVuSans-39"/>
       <use xlink:href="#DejaVuSans-30" x="63.623047"/>
       <use xlink:href="#DejaVuSans-b0" x="127.246094"/>
      </g>
     </g>
    </g>
    <g id="xtick_4">
     <g id="line2d_4">
      <path d="M 295.2 286.56 
L 141.446701 132.806701 
" clip-path="url(#p6f012a50cc)" style="fill: none; stroke: #b0b0b0; stroke-width: 0.8; stroke-linecap: square"/>
     </g>
     <g id="text_4">
      <!-- 135° -->
      <g transform="translate(119.503457 125.666582) scale(0.1 -0.1)">
       <defs>
        <path id="DejaVuSans-31" d="M 794 531 
L 1825 531 
L 1825 4091 
L 703 3866 
L 703 4441 
L 1819 4666 
L 2450 4666 
L 2450 531 
L 3481 531 
L 3481 0 
L 794 0 
L 794 531 
z
" transform="scale(0.015625)"/>
        <path id="DejaVuSans-33" d="M 2597 2516 
Q 3050 2419 3304 2112 
Q 3559 1806 3559 1356 
Q 3559 666 3084 287 
Q 2609 -91 1734 -91 
Q 1441 -91 1130 -33 
Q 819 25 488 141 
L 488 750 
Q 750 597 1062 519 
Q 1375 441 1716 441 
Q 2309 441 2620 675 
Q 2931 909 2931 1356 
Q 2931 1769 2642 2001 
Q 2353 2234 1838 2234 
L 1294 2234 
L 1294 2753 
L 1863 2753 
Q 2328 2753 2575 2939 
Q 2822 3125 2822 3475 
Q 2822 3834 2567 4026 
Q 2313 4219 1838 4219 
Q 1578 4219 1281 4162 
Q 984 4106 628 3988 
L 628 4550 
Q 988 4650 1302 4700 
Q 1616 4750 1894 4750 
Q 2613 4750 3031 4423 
Q 3450 4097 3450 3541 
Q 3450 3153 3228 2886 
Q 3006 2619 2597 2516 
z
" transform="scale(0.015625)"/>
       </defs>
       <use xlink:href="#DejaVuSans-31"/>
       <use xlink:href="#DejaVuSans-33" x="63.623047"/>
       <use xlink:href="#DejaVuSans-35" x="127.246094"/>
       <use xlink:href="#DejaVuSans-b0" x="190.869141"/>
      </g>
     </g>
    </g>
    <g id="xtick_5">
     <g id="line2d_5">
      <path d="M 295.2 286.56 
L 77.76 286.56 
" clip-path="url(#p6f012a50cc)" style="fill: none; stroke: #b0b0b0; stroke-width: 0.8; stroke-linecap: square"/>
     </g>
     <g id="text_5">
      <!-- 180° -->
      <g transform="translate(51.71625 289.319375) scale(0.1 -0.1)">
       <defs>
        <path id="DejaVuSans-38" d="M 2034 2216 
Q 1584 2216 1326 1975 
Q 1069 1734 1069 1313 
Q 1069 891 1326 650 
Q 1584 409 2034 409 
Q 2484 409 2743 651 
Q 3003 894 3003 1313 
Q 3003 1734 2745 1975 
Q 2488 2216 2034 2216 
z
M 1403 2484 
Q 997 2584 770 2862 
Q 544 3141 544 3541 
Q 544 4100 942 4425 
Q 1341 4750 2034 4750 
Q 2731 4750 3128 4425 
Q 3525 4100 3525 3541 
Q 3525 3141 3298 2862 
Q 3072 2584 2669 2484 
Q 3125 2378 3379 2068 
Q 3634 1759 3634 1313 
Q 3634 634 3220 271 
Q 2806 -91 2034 -91 
Q 1263 -91 848 271 
Q 434 634 434 1313 
Q 434 1759 690 2068 
Q 947 2378 1403 2484 
z
M 1172 3481 
Q 1172 3119 1398 2916 
Q 1625 2713 2034 2713 
Q 2441 2713 2670 2916 
Q 2900 3119 2900 3481 
Q 2900 3844 2670 4047 
Q 2441 4250 2034 4250 
Q 1625 4250 1398 4047 
Q 1172 3844 1172 3481 
z
" transform="scale(0.015625)"/>
       </defs>
       <use xlink:href="#DejaVuSans-31"/>
       <use xlink:href="#DejaVuSans-38" x="63.623047"/>
       <use xlink:href="#DejaVuSans-30" x="127.246094"/>
       <use xlink:href="#DejaVuSans-b0" x="190.869141"/>
      </g>
     </g>
    </g>
    <g id="xtick_6">
     <g id="line2d_6">
      <path d="M 295.2 286.56 
L 141.446701 440.313299 
" clip-path="url(#p6f012a50cc)" style="fill: none; stroke: #b0b0b0; stroke-width: 0.8; stroke-linecap: square"/>
     </g>
     <g id="text_6">
      <!-- 225° -->
      <g transform="translate(119.503457 452.972168) scale(0.1 -0.1)">
       <defs>
        <path id="DejaVuSans-32" d="M 1228 531 
L 3431 531 
L 3431 0 
L 469 0 
L 469 531 
Q 828 903 1448 1529 
Q 2069 2156 2228 2338 
Q 2531 2678 2651 2914 
Q 2772 3150 2772 3378 
Q 2772 3750 2511 3984 
Q 2250 4219 1831 4219 
Q 1534 4219 1204 4116 
Q 875 4013 500 3803 
L 500 4441 
Q 881 4594 1212 4672 
Q 1544 4750 1819 4750 
Q 2544 4750 2975 4387 
Q 3406 4025 3406 3419 
Q 3406 3131 3298 2873 
Q 3191 2616 2906 2266 
Q 2828 2175 2409 1742 
Q 1991 1309 1228 531 
z
" transform="scale(0.015625)"/>
       </defs>
       <use xlink:href="#DejaVuSans-32"/>
       <use xlink:href="#DejaVuSans-32" x="63.623047"/>
       <use xlink:href="#DejaVuSans-35" x="127.246094"/>
       <use xlink:href="#DejaVuSans-b0" x="190.869141"/>
      </g>
     </g>
    </g>
    <g id="xtick_7">
     <g id="line2d_7">
      <path d="M 295.2 286.56 
L 295.2 504 
" clip-path="url(#p6f012a50cc)" style="fill: none; stroke: #b0b0b0; stroke-width: 0.8; stroke-linecap: square"/>
     </g>
     <g id="text_7">
      <!-- 270° -->
      <g transform="translate(283.15625 520.759375) scale(0.1 -0.1)">
       <defs>
        <path id="DejaVuSans-37" d="M 525 4666 
L 3525 4666 
L 3525 4397 
L 1831 0 
L 1172 0 
L 2766 4134 
L 525 4134 
L 525 4666 
z
" transform="scale(0.015625)"/>
       </defs>
       <use xlink:href="#DejaVuSans-32"/>
       <use xlink:href="#DejaVuSans-37" x="63.623047"/>
       <use xlink:href="#DejaVuSans-30" x="127.246094"/>
       <use xlink:href="#DejaVuSans-b0" x="190.869141"/>
      </g>
     </g>
    </g>
    <g id="xtick_8">
     <g id="line2d_8">
      <path d="M 295.2 286.56 
L 448.953299 440.313299 
" clip-path="url(#p6f012a50cc)" style="fill: none; stroke: #b0b0b0; stroke-width: 0.8; stroke-linecap: square"/>
     </g>
     <g id="text_8">
      <!-- 315° -->
      <g transform="translate(446.809043 452.972168) scale(0.1 -0.1)">
       <use xlink:href="#DejaVuSans-33"/>
       <use xlink:href="#DejaVuSans-31" x="63.623047"/>
       <use xlink:href="#DejaVuSans-35" x="127.246094"/>
       <use xlink:href="#DejaVuSans-b0" x="190.869141"/>
      </g>
     </g>
    </g>
   </g>
   <g id="matplotlib.axis_2"/>
   <g id="line2d_9">
    <path d="M 303.271167 286.56 
L 300.66625 281.09375 
L 295.2 276.170219 
L 290.114209 281.474209 
L 289.813207 286.56 
L 290.620642 291.139358 
L 295.2 294.7142 
L 301.449852 292.809852 
L 303.271167 286.56 
" clip-path="url(#p6f012a50cc)" style="fill: none; stroke-dasharray: 7.4,3.2; stroke-dashoffset: 0; stroke: #009e73; stroke-width: 2"/>
   </g>
   <g id="line2d_10">
    <path d="M 305.893092 286.56 
L 306.333496 275.426504 
L 295.2 264.616489 
L 279.87273 271.23273 
L 285.210527 286.56 
L 279.635506 302.124494 
L 295.2 335.238523 
L 316.812897 308.172897 
L 305.893092 286.56 
" clip-path="url(#p6f012a50cc)" style="fill: none; stroke-dasharray: 7.4,3.2; stroke-dashoffset: 0; stroke: #0072b2; stroke-width: 2"/>
   </g>
   <g id="line2d_11">
    <path d="M 344.629294 286.56 
L 355.831235 225.928765 
L 295.2 121.136245 
L 210.821554 202.181554 
L 270.695741 286.56 
L 273.801281 307.958719 
L 295.2 389.79574 
L 428.484632 419.844632 
L 344.629294 286.56 
" clip-path="url(#p6f012a50cc)" style="fill: none; stroke-dasharray: 7.4,3.2; stroke-dashoffset: 0; stroke: #e69f00; stroke-width: 2"/>
   </g>
   <g id="PathCollection_1">
    <defs>
     <path id="md9468af01b" d="M 0 2.236068 
C 0.593012 2.236068 1.161816 2.000462 1.581139 1.581139 
C 2.000462 1.161816 2.236068 0.593012 2.236068 0 
C 2.236068 -0.593012 2.000462 -1.161816 1.581139 -1.581139 
C 1.161816 -2.000462 0.593012 -2.236068 0 -2.236068 
C -0.593012 -2.236068 -1.161816 -2.000462 -1.581139 -1.581139 
C -2.000462 -1.161816 -2.236068 -0.593012 -2.236068 0 
C -2.236068 0.593012 -2.000462 1.161816 -1.581139 1.581139 
C -1.161816 2.000462 -0.593012 2.236068 0 2.236068 
z
" style="stroke: #009e73"/>
    </defs>
    <g clip-path="url(#p6f012a50cc)">
     <use xlink:href="#md9468af01b" x="303.271167" y="286.56" style="fill: #009e73; stroke: #009e73"/>
     <use xlink:href="#md9468af01b" x="300.66625" y="281.09375" style="fill: #009e73; stroke: #009e73"/>
     <use xlink:href="#md9468af01b" x="295.2" y="276.170219" style="fill: #009e73; stroke: #009e73"/>
     <use xlink:href="#md9468af01b" x="290.114209" y="281.474209" style="fill: #009e73; stroke: #009e73"/>
     <use xlink:href="#md9468af01b" x="289.813207" y="286.56" style="fill: #009e73; stroke: #009e73"/>
     <use xlink:href="#md9468af01b" x="290.620642" y="291.139358" style="fill: #009e73; stroke: #009e73"/>
     <use xlink:href="#md9468af01b" x="295.2" y="294.7142" style="fill: #009e73; stroke: #009e73"/>
     <use xlink:href="#md9468af01b" x="301.449852" y="292.809852" style="fill: #009e73; stroke: #009e73"/>
     <use xlink:href="#md9468af01b" x="303.271167" y="286.56" style="fill: #009e73; stroke: #009e73"/>
    </g>
   </g>
   <g id="PathCollection_2">
    <defs>
     <path id="m4b757b34d8" d="M 0 2.236068 
C 0.593012 2.236068 1.161816 2.000462 1.581139 1.581139 
C 2.000462 1.161816 2.236068 0.593012 2.236068 0 
C 2.236068 -0.593012 2.000462 -1.161816 1.581139 -1.581139 
C 1.161816 -2.000462 0.593012 -2.236068 0 -2.236068 
C -0.593012 -2.236068 -1.161816 -2.000462 -1.581139 -1.581139 
C -2.000462 -1.161816 -2.236068 -0.593012 -2.236068 0 
C -2.236068 0.593012 -2.000462 1.161816 -1.581139 1.581139 
C -1.161816 2.000462 -0.593012 2.236068 0 2.236068 
z
" style="stroke: #0072b2"/>
    </defs>
    <g clip-path="url(#p6f012a50cc)">
     <use xlink:href="#m4b757b34d8" x="305.893092" y="286.56" style="fill: #0072b2; stroke: #0072b2"/>
     <use xlink:href="#m4b757b34d8" x="306.333496" y="275.426504" style="fill: #0072b2; stroke: #0072b2"/>
     <use xlink:href="#m4b757b34d8" x="295.2" y="264.616489" style="fill: #0072b2; stroke: #0072b2"/>
     <use xlink:href="#m4b757b34d8" x="279.87273" y="271.23273" style="fill: #0072b2; stroke: #0072b2"/>
     <use xlink:href="#m4b757b34d8" x="285.210527" y="286.56" style="fill: #0072b2; stroke: #0072b2"/>
     <use xlink:href="#m4b757b34d8" x="279.635506" y="302.124494" style="fill: #0072b2; stroke: #0072b2"/>
     <use xlink:href="#m4b757b34d8" x="295.2" y="335.238523" style="fill: #0072b2; stroke: #0072b2"/>
     <use xlink:href="#m4b757b34d8" x="316.812897" y="308.172897" style="fill: #0072b2; stroke: #0072b2"/>
     <use xlink:href="#m4b757b34d8" x="305.893092" y="286.56" style="fill: #0072b2; stroke: #0072b2"/>
    </g>
   </g>
   <g id="PathCollection_3">
    <defs>
     <path id="m5403dffcab" d="M 0 2.236068 
C 0.593012 2.236068 1.161816 2.000462 1.581139 1.581139 
C 2.000462 1.161816 2.236068 0.593012 2.236068 0 
C 2.236068 -0.593012 2.000462 -1.161816 1.581139 -1.581139 
C 1.161816 -2.000462 0.593012 -2.236068 0 -2.236068 
C -0.593012 -2.236068 -1.161816 -2.000462 -1.581139 -1.581139 
C -2.000462 -1.161816 -2.236068 -0.593012 -2.236068 0 
C -2.236068 0.593012 -2.000462 1.161816 -1.581139 1.581139 
C -1.161816 2.000462 -0.593012 2.236068 0 2.236068 
z
" style="stroke: #e69f00"/>
    </defs>
    <g clip-path="url(#p6f012a50cc)">
     <use xlink:href="#m5403dffcab" x="344.629294" y="286.56" style="fill: #e69f00; stroke: #e69f00"/>
     <use xlink:href="#m5403dffcab" x="355.831235" y="225.928765" style="fill: #e69f00; stroke: #e69f00"/>
     <use xlink:href="#m5403dffcab" x="295.2" y="121.136245" style="fill: #e69f00; stroke: #e69f00"/>
     <use xlink:href="#m5403dffcab" x="210.821554" y="202.181554" style="fill: #e69f00; stroke: #e69f00"/>
     <use xlink:href="#m5403dffcab" x="270.695741" y="286.56" style="fill: #e69f00; stroke: #e69f00"/>
     <use xlink:href="#m5403dffcab" x="273.801281" y="307.958719" style="fill: #e69f00; stroke: #e69f00"/>
     <use xlink:href="#m5403dffcab" x="295.2" y="389.79574" style="fill: #e69f00; stroke: #e69f00"/>
     <use xlink:href="#m5403dffcab" x="428.484632" y="419.844632" style="fill: #e69f00; stroke: #e69f00"/>
     <use xlink:href="#m5403dffcab" x="344.629294" y="286.56" style="fill: #e69f00; stroke: #e69f00"/>
    </g>
   </g>
  </g>
  <g id="axes_2">
   <g id="patch_4">
    <path d="M 547.2 115.2 
C 547.2 103.854056 544.965096 92.618437 540.623192 82.136151 
C 536.281287 71.653866 529.91682 62.128768 521.894026 54.105974 
C 513.871232 46.08318 504.346134 39.718713 493.863849 35.376808 
C 483.381563 31.034904 472.145944 28.8 460.8 28.8 
C 449.454056 28.8 438.218437 31.034904 427.736151 35.376808 
C 417.253866 39.718713 407.728768 46.08318 399.705974 54.105974 
C 391.68318 62.128768 385.318713 71.653866 380.976808 82.136151 
C 376.634904 92.618437 374.4 103.854056 374.4 115.2 
C 374.4 126.545944 376.634904 137.781563 380.976808 148.263849 
C 385.318713 158.746134 391.68318 168.271232 399.705974 176.294026 
C 407.728768 184.31682 417.253866 190.681287 427.736151 195.023192 
C 438.218437 199.365096 449.454056 201.6 460.8 201.6 
C 472.145944 201.6 483.381563 199.365096 493.863849 195.023192 
C 504.346134 190.681287 513.871232 184.31682 521.894026 176.294026 
C 529.91682 168.271232 536.281287 158.746134 540.623192 148.263849 
C 544.965096 137.781563 547.2 126.545944 547.2 115.2 
M 460.8 115.2 
C 460.8 115.2 460.8 115.2 460.8 115.2 
C 460.8 115.2 460.8 115.2 460.8 115.2 
C 460.8 115.2 460.8 115.2 460.8 115.2 
C 460.8 115.2 460.8 115.2 460.8 115.2 
C 460.8 115.2 460.8 115.2 460.8 115.2 
C 460.8 115.2 460.8 115.2 460.8 115.2 
C 460.8 115.2 460.8 115.2 460.8 115.2 
C 460.8 115.2 460.8 115.2 460.8 115.2 
C 460.8 115.2 460.8 115.2 460.8 115.2 
C 460.8 115.2 460.8 115.2 460.8 115.2 
C 460.8 115.2 460.8 115.2 460.8 115.2 
C 460.8 115.2 460.8 115.2 460.8 115.2 
C 460.8 115.2 460.8 115.2 460.8 115.2 
C 460.8 115.2 460.8 115.2 460.8 115.2 
C 460.8 115.2 460.8 115.2 460.8 115.2 
C 460.8 115.2 460.8 115.2 460.8 115.2 
z
" style="fill: #ffffff"/>
   </g>
   <g id="patch_5">
    <path d="M 20638.016804 115.2 
L 20597.393538 -1164.518177 
L 20475.687318 -2439.083381 
L 20273.38821 -3703.363388 
L 19991.310803 -4952.267387 
L 19630.590922 -6180.766484 
L 19192.681058 -7383.913946 
L 18679.344521 -8556.865122 
L 18092.648335 -9694.896954 
L 17434.954919 -10793.426987 
L 16708.912572 -11848.031829 
L 15917.44481 -12854.464959 
L 15063.738595 -13808.673826 
L 14151.2315 -14706.816168 
L 13183.59787 -15545.275481 
L 12164.734023 -16320.675588 
L 11098.742564 -17029.894224 
L 9989.915866 -17670.075617 
L 8842.718781 -18238.641982 
L 7661.770667 -18733.303903 
L 6451.826786 -19152.069552 
L 5217.759155 -19493.252706 
L 3964.536928 -19755.479542 
L 2697.20639 -19937.694165 
L 1420.870632 -20039.162861 
L 140.669008 -20059.47705 
L -1138.243561 -19998.554936 
L -2410.717346 -19856.64183 
L -3671.628544 -19634.309165 
L -4915.899911 -19332.452198 
L -6138.521205 -18952.286399 
L -7334.569362 -18495.342562 
L -8499.228318 -17963.460639 
L -9627.808402 -17358.78233 
L -10715.765221 -16683.742461 
L -11758.717956 -15941.05918 
L -12752.467005 -15133.723011 
L -13693.010892 -14264.984811 
L -14576.562377 -13338.342681 
L -15399.563712 -12357.527884 
L -16158.70096 -11326.489814 
L -16850.917343 -10249.380097 
L -17473.42555 -9130.535874 
L -18023.718961 -7974.462336 
L -18499.581738 -6785.814583 
L -18899.09775 -5569.37888 
L -19220.658287 -4330.053384 
L -19462.968537 -3072.828422 
L -19625.052804 -1802.766394 
L -19706.25843 -524.981393 
L -19706.25843 755.381393 
L -19625.052804 2033.166394 
L -19462.968537 3303.228422 
L -19220.658287 4560.453384 
L -18899.09775 5799.77888 
L -18499.581738 7016.214583 
L -18023.718961 8204.862336 
L -17473.42555 9360.935874 
L -16850.917343 10479.780097 
L -16158.70096 11556.889814 
L -15399.563712 12587.927884 
L -14576.562377 13568.742681 
L -13693.010892 14495.384811 
L -12752.467005 15364.123011 
L -11758.717956 16171.45918 
L -10715.765221 16914.142461 
L -9627.808402 17589.18233 
L -8499.228318 18193.860639 
L -7334.569362 18725.742562 
L -6138.521205 19182.686399 
L -4915.899911 19562.852198 
L -3671.628544 19864.709165 
L -2410.717346 20087.04183 
L -1138.243561 20228.954936 
L 140.669008 20289.87705 
L 1420.870632 20269.562861 
L 2697.20639 20168.094165 
L 3964.536928 19985.879542 
L 5217.759155 19723.652706 
L 6451.826786 19382.469552 
L 7661.770667 18963.703903 
L 8842.718781 18469.041982 
L 9989.915866 17900.475617 
L 11098.742564 17260.294224 
L 12164.734023 16551.075588 
L 13183.59787 15775.675481 
L 14151.2315 14937.216168 
L 15063.738595 14039.073826 
L 15917.44481 13084.864959 
L 16708.912572 12078.431829 
L 17434.954919 11023.826987 
L 18092.648335 9925.296954 
L 18679.344521 8787.265122 
L 19192.681058 7614.313946 
L 19630.590922 6411.166484 
L 19991.310803 5182.667387 
L 20273.38821 3933.763388 
L 20475.687318 2669.483381 
L 20597.393538 1394.918177 
L 20638.016804 115.2 
z
" clip-path="url(#pa11175bd23)" style="fill: #808080; opacity: 0.2; stroke: #808080; stroke-linejoin: miter"/>
   </g>
   <g id="matplotlib.axis_3">
    <g id="xtick_9">
     <g id="line2d_12">
      <path d="M 460.8 115.2 
L 547.2 115.2 
" clip-path="url(#pa11175bd23)" style="fill: none; stroke: #b0b0b0; stroke-width: 0.8; stroke-linecap: square"/>
     </g>
    </g>
    <g id="xtick_10">
     <g id="line2d_13">
      <path d="M 460.8 115.2 
L 521.894026 54.105974 
" clip-path="url(#pa11175bd23)" style="fill: none; stroke: #b0b0b0; stroke-width: 0.8; stroke-linecap: square"/>
     </g>
    </g>
    <g id="xtick_11">
     <g id="line2d_14">
      <path d="M 460.8 115.2 
L 460.8 28.8 
" clip-path="url(#pa11175bd23)" style="fill: none; stroke: #b0b0b0; stroke-width: 0.8; stroke-linecap: square"/>
     </g>
    </g>
    <g id="xtick_12">
     <g id="line2d_15">
      <path d="M 460.8 115.2 
L 399.705974 54.105974 
" clip-path="url(#pa11175bd23)" style="fill: none; stroke: #b0b0b0; stroke-width: 0.8; stroke-linecap: square"/>
     </g>
    </g>
    <g id="xtick_13">
     <g id="line2d_16">
      <path d="M 460.8 115.2 
L 374.4 115.2 
" clip-path="url(#pa11175bd23)" style="fill: none; stroke: #b0b0b0; stroke-width: 0.8; stroke-linecap: square"/>
     </g>
    </g>
    <g id="xtick_14">
     <g id="line2d_17">
      <path d="M 460.8 115.2 
L 399.705974 176.294026 
" clip-path="url(#pa11175bd23)" style="fill: none; stroke: #b0b0b0; stroke-width: 0.8; stroke-linecap: square"/>
     </g>
    </g>
    <g id="xtick_15">
     <g id="line2d_18">
      <path d="M 460.8 115.2 
L 460.8 201.6 
" clip-path="url(#pa11175bd23)" style="fill: none; stroke: #b0b0b0; stroke-width: 0.8; stroke-linecap: square"/>
     </g>
    </g>
    <g id="xtick_16">
     <g id="line2d_19">
      <path d="M 460.8 115.2 
L 521.894026 176.294026 
" clip-path="url(#pa11175bd23)" style="fill: none; stroke: #b0b0b0; stroke-width: 0.8; stroke-linecap: square"/>
     </g>
    </g>
   </g>
   <g id="matplotlib.axis_4"/>
   <g id="line2d_20">
    <path d="M 475.125596 115.2 
L 470.502102 105.497898 
L 460.8 96.759073 
L 451.773178 106.173178 
L 451.238926 115.2 
L 452.672052 123.327948 
L 460.8 129.672972 
L 471.892925 126.292925 
L 475.125596 115.2 
" clip-path="url(#pa11175bd23)" style="fill: none; stroke-dasharray: 7.4,3.2; stroke-dashoffset: 0; stroke: #009e73; stroke-width: 2"/>
   </g>
   <g id="line2d_21">
    <path d="M 479.779277 115.2 
L 480.560953 95.439047 
L 460.8 76.252242 
L 433.595474 87.995474 
L 443.069585 115.2 
L 433.174424 142.825576 
L 460.8 201.6 
L 499.160948 153.560948 
L 479.779277 115.2 
" clip-path="url(#pa11175bd23)" style="fill: none; stroke-dasharray: 7.4,3.2; stroke-dashoffset: 0; stroke: #0072b2; stroke-width: 2"/>
   </g>
   <g id="line2d_22">
    <path d="M 548.532552 115.2 
L 568.414989 7.585011 
L 563.447843 -1 
M 334.852669 -1 
L 417.307144 115.2 
L 422.819198 153.180802 
L 460.8 298.434153 
L 577 324.631331 
M 577 160.447846 
L 548.532552 115.2 
" clip-path="url(#pa11175bd23)" style="fill: none; stroke-dasharray: 7.4,3.2; stroke-dashoffset: 0; stroke: #e69f00; stroke-width: 2"/>
   </g>
   <g id="patch_6">
    <path d="M 547.2 115.2 
C 547.2 103.854056 544.965096 92.618437 540.623192 82.136151 
C 536.281287 71.653866 529.91682 62.128768 521.894026 54.105974 
C 513.871232 46.08318 504.346134 39.718713 493.863849 35.376808 
C 483.381563 31.034904 472.145944 28.8 460.8 28.8 
C 449.454056 28.8 438.218437 31.034904 427.736151 35.376808 
C 417.253866 39.718713 407.728768 46.08318 399.705974 54.105974 
C 391.68318 62.128768 385.318713 71.653866 380.976808 82.136151 
C 376.634904 92.618437 374.4 103.854056 374.4 115.2 
C 374.4 126.545944 376.634904 137.781563 380.976808 148.263849 
C 385.318713 158.746134 391.68318 168.271232 399.705974 176.294026 
C 407.728768 184.31682 417.253866 190.681287 427.736151 195.023192 
C 438.218437 199.365096 449.454056 201.6 460.8 201.6 
C 472.145944 201.6 483.381563 199.365096 493.863849 195.023192 
C 504.346134 190.681287 513.871232 184.31682 521.894026 176.294026 
C 529.91682 168.271232 536.281287 158.746134 540.623192 148.263849 
C 544.965096 137.781563 547.2 126.545944 547.2 115.2 
" style="fill: none; stroke: #000000; stroke-width: 0.8; stroke-linejoin: miter; stroke-linecap: square"/>
   </g>
   <g id="text_9">
    <!-- Zoom -->
    <g transform="translate(440.620312 22.8) scale(0.14 -0.14)">
     <defs>
      <path id="DejaVuSans-5a" d="M 359 4666 
L 4025 4666 
L 4025 4184 
L 1075 531 
L 4097 531 
L 4097 0 
L 288 0 
L 288 481 
L 3238 4134 
L 359 4134 
L 359 4666 
z
" transform="scale(0.015625)"/>
      <path id="DejaVuSans-6f" d="M 1959 3097 
Q 1497 3097 1228 2736 
Q 959 2375 959 1747 
Q 959 1119 1226 758 
Q 1494 397 1959 397 
Q 2419 397 2687 759 
Q 2956 1122 2956 1747 
Q 2956 2369 2687 2733 
Q 2419 3097 1959 3097 
z
M 1959 3584 
Q 2709 3584 3137 3096 
Q 3566 2609 3566 1747 
Q 3566 888 3137 398 
Q 2709 -91 1959 -91 
Q 1206 -91 779 398 
Q 353 888 353 1747 
Q 353 2609 779 3096 
Q 1206 3584 1959 3584 
z
" transform="scale(0.015625)"/>
      <path id="DejaVuSans-6d" d="M 3328 2828 
Q 3544 3216 3844 3400 
Q 4144 3584 4550 3584 
Q 5097 3584 5394 3201 
Q 5691 2819 5691 2113 
L 5691 0 
L 5113 0 
L 5113 2094 
Q 5113 2597 4934 2840 
Q 4756 3084 4391 3084 
Q 3944 3084 3684 2787 
Q 3425 2491 3425 1978 
L 3425 0 
L 2847 0 
L 2847 2094 
Q 2847 2600 2669 2842 
Q 2491 3084 2119 3084 
Q 1678 3084 1418 2786 
Q 1159 2488 1159 1978 
L 1159 0 
L 581 0 
L 581 3500 
L 1159 3500 
L 1159 2956 
Q 1356 3278 1631 3431 
Q 1906 3584 2284 3584 
Q 2666 3584 2933 3390 
Q 3200 3197 3328 2828 
z
" transform="scale(0.015625)"/>
     </defs>
     <use xlink:href="#DejaVuSans-5a"/>
     <use xlink:href="#DejaVuSans-6f" x="68.505859"/>
     <use xlink:href="#DejaVuSans-6f" x="129.6875"/>
     <use xlink:href="#DejaVuSans-6d" x="190.869141"/>
    </g>
   </g>
   <g id="PathCollection_4">
    <defs>
     <path id="m4254930fa2" d="M 0 3.162278 
C 0.838646 3.162278 1.643056 2.82908 2.236068 2.236068 
C 2.82908 1.643056 3.162278 0.838646 3.162278 0 
C 3.162278 -0.838646 2.82908 -1.643056 2.236068 -2.236068 
C 1.643056 -2.82908 0.838646 -3.162278 0 -3.162278 
C -0.838646 -3.162278 -1.643056 -2.82908 -2.236068 -2.236068 
C -2.82908 -1.643056 -3.162278 -0.838646 -3.162278 0 
C -3.162278 0.838646 -2.82908 1.643056 -2.236068 2.236068 
C -1.643056 2.82908 -0.838646 3.162278 0 3.162278 
z
" style="stroke: #009e73"/>
    </defs>
    <g clip-path="url(#pa11175bd23)">
     <use xlink:href="#m4254930fa2" x="475.125596" y="115.2" style="fill: #009e73; stroke: #009e73"/>
     <use xlink:href="#m4254930fa2" x="470.502102" y="105.497898" style="fill: #009e73; stroke: #009e73"/>
     <use xlink:href="#m4254930fa2" x="460.8" y="96.759073" style="fill: #009e73; stroke: #009e73"/>
     <use xlink:href="#m4254930fa2" x="451.773178" y="106.173178" style="fill: #009e73; stroke: #009e73"/>
     <use xlink:href="#m4254930fa2" x="451.238926" y="115.2" style="fill: #009e73; stroke: #009e73"/>
     <use xlink:href="#m4254930fa2" x="452.672052" y="123.327948" style="fill: #009e73; stroke: #009e73"/>
     <use xlink:href="#m4254930fa2" x="460.8" y="129.672972" style="fill: #009e73; stroke: #009e73"/>
     <use xlink:href="#m4254930fa2" x="471.892925" y="126.292925" style="fill: #009e73; stroke: #009e73"/>
     <use xlink:href="#m4254930fa2" x="475.125596" y="115.2" style="fill: #009e73; stroke: #009e73"/>
    </g>
   </g>
   <g id="PathCollection_5">
    <defs>
     <path id="m01020cb02e" d="M 0 3.162278 
C 0.838646 3.162278 1.643056 2.82908 2.236068 2.236068 
C 2.82908 1.643056 3.162278 0.838646 3.162278 0 
C 3.162278 -0.838646 2.82908 -1.643056 2.236068 -2.236068 
C 1.643056 -2.82908 0.838646 -3.162278 0 -3.162278 
C -0.838646 -3.162278 -1.643056 -2.82908 -2.236068 -2.236068 
C -2.82908 -1.643056 -3.162278 -0.838646 -3.162278 0 
C -3.162278 0.838646 -2.82908 1.643056 -2.236068 2.236068 
C -1.643056 2.82908 -0.838646 3.162278 0 3.162278 
z
" style="stroke: #0072b2"/>
    </defs>
    <g clip-path="url(#pa11175bd23)">
     <use xlink:href="#m01020cb02e" x="479.779277" y="115.2" style="fill: #0072b2; stroke: #0072b2"/>
     <use xlink:href="#m01020cb02e" x="480.560953" y="95.439047" style="fill: #0072b2; stroke: #0072b2"/>
     <use xlink:href="#m01020cb02e" x="460.8" y="76.252242" style="fill: #0072b2; stroke: #0072b2"/>
     <use xlink:href="#m01020cb02e" x="433.595474" y="87.995474" style="fill: #0072b2; stroke: #0072b2"/>
     <use xlink:href="#m01020cb02e" x="443.069585" y="115.2" style="fill: #0072b2; stroke: #0072b2"/>
     <use xlink:href="#m01020cb02e" x="433.174424" y="142.825576" style="fill: #0072b2; stroke: #0072b2"/>
     <use xlink:href="#m01020cb02e" x="460.8" y="201.6" style="fill: #0072b2; stroke: #0072b2"/>
     <use xlink:href="#m01020cb02e" x="499.160948" y="153.560948" style="fill: #0072b2; stroke: #0072b2"/>
     <use xlink:href="#m01020cb02e" x="479.779277" y="115.2" style="fill: #0072b2; stroke: #0072b2"/>
    </g>
   </g>
   <g id="PathCollection_6">
    <defs>
     <path id="m9c0887480c" d="M 0 3.162278 
C 0.838646 3.162278 1.643056 2.82908 2.236068 2.236068 
C 2.82908 1.643056 3.162278 0.838646 3.162278 0 
C 3.162278 -0.838646 2.82908 -1.643056 2.236068 -2.236068 
C 1.643056 -2.82908 0.838646 -3.162278 0 -3.162278 
C -0.838646 -3.162278 -1.643056 -2.82908 -2.236068 -2.236068 
C -2.82908 -1.643056 -3.162278 -0.838646 -3.162278 0 
C -3.162278 0.838646 -2.82908 1.643056 -2.236068 2.236068 
C -1.643056 2.82908 -0.838646 3.162278 0 3.162278 
z
" style="stroke: #e69f00"/>
    </defs>
    <g clip-path="url(#pa11175bd23)">
     <use xlink:href="#m9c0887480c" x="548.532552" y="115.2" style="fill: #e69f00; stroke: #e69f00"/>
     <use xlink:href="#m9c0887480c" x="568.414989" y="7.585011" style="fill: #e69f00; stroke: #e69f00"/>
     <use xlink:href="#m9c0887480c" x="563.447843" y="-1" style="fill: #e69f00; stroke: #e69f00"/>
     <use xlink:href="#m9c0887480c" x="334.852669" y="-1" style="fill: #e69f00; stroke: #e69f00"/>
     <use xlink:href="#m9c0887480c" x="417.307144" y="115.2" style="fill: #e69f00; stroke: #e69f00"/>
     <use xlink:href="#m9c0887480c" x="422.819198" y="153.180802" style="fill: #e69f00; stroke: #e69f00"/>
     <use xlink:href="#m9c0887480c" x="460.8" y="298.434153" style="fill: #e69f00; stroke: #e69f00"/>
     <use xlink:href="#m9c0887480c" x="697.368234" y="351.768234" style="fill: #e69f00; stroke: #e69f00"/>
     <use xlink:href="#m9c0887480c" x="548.532552" y="115.2" style="fill: #e69f00; stroke: #e69f00"/>
    </g>
   </g>
  </g>
 </g>
 <defs>
  <clipPath id="p6f012a50cc">
   <path d="M 512.64 286.56 
C 512.64 258.006041 507.015493 229.729733 496.088366 203.349314 
C 485.161238 176.968896 469.143997 152.9974 448.953299 132.806701 
C 428.7626 112.616003 404.791104 96.598762 378.410686 85.671634 
C 352.030267 74.744507 323.753959 69.12 295.2 69.12 
C 266.646041 69.12 238.369733 74.744507 211.989314 85.671634 
C 185.608896 96.598762 161.6374 112.616003 141.446701 132.806701 
C 121.256003 152.9974 105.238762 176.968896 94.311634 203.349314 
C 83.384507 229.729733 77.76 258.006041 77.76 286.56 
C 77.76 315.113959 83.384507 343.390267 94.311634 369.770686 
C 105.238762 396.151104 121.256003 420.1226 141.446701 440.313299 
C 161.6374 460.503997 185.608896 476.521238 211.989314 487.448366 
C 238.369733 498.375493 266.646041 504 295.2 504 
C 323.753959 504 352.030267 498.375493 378.410686 487.448366 
C 404.791104 476.521238 428.7626 460.503997 448.953299 440.313299 
C 469.143997 420.1226 485.161238 396.151104 496.088366 369.770686 
C 507.015493 343.390267 512.64 315.113959 512.64 286.56 
M 295.2 286.56 
C 295.2 286.56 295.2 286.56 295.2 286.56 
C 295.2 286.56 295.2 286.56 295.2 286.56 
C 295.2 286.56 295.2 286.56 295.2 286.56 
C 295.2 286.56 295.2 286.56 295.2 286.56 
C 295.2 286.56 295.2 286.56 295.2 286.56 
C 295.2 286.56 295.2 286.56 295.2 286.56 
C 295.2 286.56 295.2 286.56 295.2 286.56 
C 295.2 286.56 295.2 286.56 295.2 286.56 
C 295.2 286.56 295.2 286.56 295.2 286.56 
C 295.2 286.56 295.2 286.56 295.2 286.56 
C 295.2 286.56 295.2 286.56 295.2 286.56 
C 295.2 286.56 295.2 286.56 295.2 286.56 
C 295.2 286.56 295.2 286.56 295.2 286.56 
C 295.2 286.56 295.2 286.56 295.2 286.56 
C 295.2 286.56 295.2 286.56 295.2 286.56 
C 295.2 286.56 295.2 286.56 295.2 286.56 
z
"/>
  </clipPath>
  <clipPath id="pa11175bd23">
   <path d="M 547.2 115.2 
C 547.2 103.854056 544.965096 92.618437 540.623192 82.136151 
C 536.281287 71.653866 529.91682 62.128768 521.894026 54.105974 
C 513.871232 46.08318 504.346134 39.718713 493.863849 35.376808 
C 483.381563 31.034904 472.145944 28.8 460.8 28.8 
C 449.454056 28.8 438.218437 31.034904 427.736151 35.376808 
C 417.253866 39.718713 407.728768 46.08318 399.705974 54.105974 
C 391.68318 62.128768 385.318713 71.653866 380.976808 82.136151 
C 376.634904 92.618437 374.4 103.854056 374.4 115.2 
C 374.4 126.545944 376.634904 137.781563 380.976808 148.263849 
C 385.318713 158.746134 391.68318 168.271232 399.705974 176.294026 
C 407.728768 184.31682 417.253866 190.681287 427.736151 195.023192 
C 438.218437 199.365096 449.454056 201.6 460.8 201.6 
C 472.145944 201.6 483.381563 199.365096 493.863849 195.023192 
C 504.346134 190.681287 513.871232 184.31682 521.894026 176.294026 
C 529.91682 168.271232 536.281287 158.746134 540.623192 148.263849 
C 544.965096 137.781563 547.2 126.545944 547.2 115.2 
M 460.8 115.2 
C 460.8 115.2 460.8 115.2 460.8 115.2 
C 460.8 115.2 460.8 115.2 460.8 115.2 
C 460.8 115.2 460.8 115.2 460.8 115.2 
C 460.8 115.2 460.8 115.2 460.8 115.2 
C 460.8 115.2 460.8 115.2 460.8 115.2 
C 460.8 115.2 460.8 115.2 460.8 115.2 
C 460.8 115.2 460.8 115.2 460.8 115.2 
C 460.8 115.2 460.8 115.2 460.8 115.2 
C 460.8 115.2 460.8 115.2 460.8 115.2 
C 460.8 115.2 460.8 115.2 460.8 115.2 
C 460.8 115.2 460.8 115.2 460.8 115.2 
C 460.8 115.2 460.8 115.2 460.8 115.2 
C 460.8 115.2 460.8 115.2 460.8 115.2 
C 460.8 115.2 460.8 115.2 460.8 115.2 
C 460.8 115.2 460.8 115.2 460.8 115.2 
C 460.8 115.2 460.8 115.2 460.8 115.2 
z
"/>
  </clipPath>
 </defs>
</svg>
