<?xml version="1.0" encoding="utf-8" standalone="no"?>
<!DOCTYPE svg PUBLIC "-//W3C//DTD SVG 1.1//EN"
  "http://www.w3.org/Graphics/SVG/1.1/DTD/svg11.dtd">
<svg xmlns:xlink="http://www.w3.org/1999/xlink" width="516.0525pt" height="502.372812pt" viewBox="0 0 516.0525 502.372812" xmlns="http://www.w3.org/2000/svg" version="1.1">
 <metadata>
  <rdf:RDF xmlns:dc="http://purl.org/dc/elements/1.1/" xmlns:cc="http://creativecommons.org/ns#" xmlns:rdf="http://www.w3.org/1999/02/22-rdf-syntax-ns#">
   <cc:Work>
    <dc:type rdf:resource="http://purl.org/dc/dcmitype/StillImage"/>
    <dc:date>2026-10-08T14:50:13.730530</dc:date>
    <dc:format>image/svg+xml</dc:format>
    <dc:creator>
     <cc:Agent>
      <dc:title>Matplotlib v3.10.1, https://matplotlib.org/</dc:title>
     </cc:Agent>
    </dc:creator>
   </cc:Work>
  </rdf:RDF>
 </metadata>
 <defs>
  <style type="text/css">*{stroke-linejoin: round; stroke-linecap: butt}</style>
 </defs>
 <g id="figure_1">
  <g id="patch_1">
   <path d="M 0 502.372812 
L 516.0525 502.372812 
L 516.0525 0 
L 0 0 
z
" style="fill: #ffffff"/>
  </g>
  <g id="axes_1">
   <g id="patch_2">
    <path d="M 485.194375 251.186406 
C 485.194375 222.06515 479.458122 193.227061 468.3139 166.322528 
C 457.169678 139.417996 440.834213 114.970244 420.242375 94.378406 
C 399.650537 73.786569 375.202786 57.451103 348.298253 46.306881 
C 321.39372 35.162659 292.555631 29.426406 263.434375 29.426406 
C 234.313119 29.426406 205.47503 35.162659 178.570497 46.306881 
C 151.665964 57.451103 127.218213 73.786569 106.626375 94.378406 
C 86.034537 114.970244 69.699072 139.417996 58.55485 166.322528 
C 47.410628 193.227061 41.674375 222.06515 41.674375 251.186406 
C 41.674375 280.307663 47.410628 309.145751 58.55485 336.050284 
C 69.699072 362.954817 86.034537 387.402568 106.626375 407.994406 
C 127.218213 428.586244 151.665964 444.921709 178.570497 456.065931 
C 205.47503 467.210154 234.313119 472.946406 263.434375 472.946406 
C 292.555631 472.946406 321.39372 467.210154 348.298253 456.065931 
C 375.202786 444.921709 399.650537 428.586244 420.242375 407.994406 
C 440.834213 387.402568 457.169678 362.954817 468.3139 336.050284 
C 479.458122 309.145751 485.194375 280.307663 485.194375 251.186406 
M 263.434375 251.186406 
C 263.434375 251.186406 263.434375 251.186406 263.434375 251.186406 
C 263.434375 251.186406 263.434375 251.186406 263.434375 251.186406 
C 263.434375 251.186406 263.434375 251.186406 263.434375 251.186406 
C 263.434375 251.186406 263.434375 251.186406 263.434375 251.186406 
C 263.434375 251.186406 263.434375 251.186406 263.434375 251.186406 
C 263.434375 251.186406 263.434375 251.186406 263.434375 251.186406 
C 263.434375 251.186406 263.434375 251.186406 263.434375 251.186406 
C 263.434375 251.186406 263.434375 251.186406 263.434375 251.186406 
C 263.434375 251.186406 263.434375 251.186406 263.434375 251.186406 
C 263.434375 251.186406 263.434375 251.186406 263.434375 251.186406 
C 263.434375 251.186406 263.434375 251.186406 263.434375 251.186406 
C 263.434375 251.186406 263.434375 251.186406 263.434375 251.186406 
C 263.434375 251.186406 263.434375 251.186406 263.434375 251.186406 
C 263.434375 251.186406 263.434375 251.186406 263.434375 251.186406 
C 263.434375 251.186406 263.434375 251.186406 263.434375 251.186406 
C 263.434375 251.186406 263.434375 251.186406 263.434375 251.186406 
z
" style="fill: #ffffff"/>
   </g>
   <g id="FillBetweenPolyCollection_1">
    <defs>
     <path id="m246ead0bce" d="M 325.957194 -251.186406 
L 295.933506 -251.186406 
L 270.508841 -258.260872 
L 263.434375 -283.34787 
L 217.330856 -297.289925 
L 193.593706 -251.186406 
L 244.550772 -232.302803 
L 263.434375 -221.834729 
L 313.099946 -201.520835 
L 295.933506 -251.186406 
L 325.957194 -251.186406 
L 325.957194 -251.186406 
L 330.134233 -184.486548 
L 263.434375 -194.081822 
L 219.279318 -207.031349 
L 156.004793 -251.186406 
L 190.049721 -324.57106 
L 263.434375 -318.813583 
L 287.702238 -275.454269 
L 325.957194 -251.186406 
z
"/>
    </defs>
    <g clip-path="url(#p0d85d802d4)">
     <use xlink:href="#m246ead0bce" x="0" y="502.372812" style="fill: #009e73; fill-opacity: 0.2"/>
    </g>
   </g>
   <g id="FillBetweenPolyCollection_2">
    <defs>
     <path id="m3ee04431b3" d="M 349.22471 -251.186406 
L 309.377736 -251.186406 
L 280.622661 -268.374693 
L 263.434375 -327.686874 
L 164.911609 -349.709172 
L 135.319107 -251.186406 
L 234.06473 -221.816761 
L 263.434375 -215.856585 
L 324.792772 -189.828009 
L 309.377736 -251.186406 
L 349.22471 -251.186406 
L 349.22471 -251.186406 
L 337.586372 -177.034409 
L 263.434375 -183.2823 
L 211.074794 -198.826825 
L 74.324138 -251.186406 
L 114.093423 -400.527358 
L 263.434375 -395.15603 
L 313.303824 -301.055855 
L 349.22471 -251.186406 
z
"/>
    </defs>
    <g clip-path="url(#p0d85d802d4)">
     <use xlink:href="#m3ee04431b3" x="0" y="502.372812" style="fill: #0072b2; fill-opacity: 0.2"/>
    </g>
   </g>
   <g id="matplotlib.axis_1">
    <g id="xtick_1">
     <g id="line2d_1">
      <path d="M 263.434375 251.186406 
L 485.194375 251.186406 
" clip-path="url(#p0d85d802d4)" style="fill: none; stroke: #b0b0b0; stroke-width: 0.8; stroke-linecap: square"/>
     </g>
     <g id="text_1">
      <!-- 0° -->
      <g transform="translate(489.53625 255.877344) scale(0.17 -0.17)">
       <defs>
        <path id="DejaVuSans-30" d="M 2034 4250 
Q 1547 4250 1301 3770 
Q 1056 3291 1056 2328 
Q 1056 1369 1301 889 
Q 1547 409 2034 409 
Q 2525 409 2770 889 
Q 3016 1369 3016 2328 
Q 3016 3291 2770 3770 
Q 2525 4250 2034 4250 
z
M 2034 4750 
Q 2819 4750 3233 4129 
Q 3647 3509 3647 2328 
Q 3647 1150 3233 529 
Q 2819 -91 2034 -91 
Q 1250 -91 836 529 
Q 422 1150 422 2328 
Q 422 3509 836 4129 
Q 1250 4750 2034 4750 
z
" transform="scale(0.015625)"/>
        <path id="DejaVuSans-b0" d="M 1600 4347 
Q 1350 4347 1178 4173 
Q 1006 4000 1006 3750 
Q 1006 3503 1178 3333 
Q 1350 3163 1600 3163 
Q 1850 3163 2022 3333 
Q 2194 3503 2194 3750 
Q 2194 3997 2020 4172 
Q 1847 4347 1600 4347 
z
M 1600 4750 
Q 1800 4750 1984 4673 
Q 2169 4597 2303 4453 
Q 2447 4313 2519 4134 
Q 2591 3956 2591 3750 
Q 2591 3338 2302 3052 
Q 2013 2766 1594 2766 
Q 1172 2766 890 3047 
Q 609 3328 609 3750 
Q 609 4169 896 4459 
Q 1184 4750 1600 4750 
z
" transform="scale(0.015625)"/>
       </defs>
       <use xlink:href="#DejaVuSans-30"/>
       <use xlink:href="#DejaVuSans-b0" transform="translate(63.623047 0)"/>
      </g>
     </g>
    </g>
    <g id="xtick_2">
     <g id="line2d_2">
      <path d="M 263.434375 251.186406 
L 420.242375 94.378406 
" clip-path="url(#p0d85d802d4)" style="fill: none; stroke: #b0b0b0; stroke-width: 0.8; stroke-linecap: square"/>
     </g>
     <g id="text_2">
      <!-- 45° -->
      <g transform="translate(415.07562 89.169849) scale(0.17 -0.17)">
       <defs>
        <path id="DejaVuSans-34" d="M 2419 4116 
L 825 1625 
L 2419 1625 
L 2419 4116 
z
M 2253 4666 
L 3047 4666 
L 3047 1625 
L 3713 1625 
L 3713 1100 
L 3047 1100 
L 3047 0 
L 2419 0 
L 2419 1100 
L 313 1100 
L 313 1709 
L 2253 4666 
z
" transform="scale(0.015625)"/>
        <path id="DejaVuSans-35" d="M 691 4666 
L 3169 4666 
L 3169 4134 
L 1269 4134 
L 1269 2991 
Q 1406 3038 1543 3061 
Q 1681 3084 1819 3084 
Q 2600 3084 3056 2656 
Q 3513 2228 3513 1497 
Q 3513 744 3044 326 
Q 2575 -91 1722 -91 
Q 1428 -91 1123 -41 
Q 819 9 494 109 
L 494 744 
Q 775 591 1075 516 
Q 1375 441 1709 441 
Q 2250 441 2565 725 
Q 2881 1009 2881 1497 
Q 2881 1984 2565 2268 
Q 2250 2553 1709 2553 
Q 1456 2553 1204 2497 
Q 953 2441 691 2322 
L 691 4666 
z
" transform="scale(0.015625)"/>
       </defs>
       <use xlink:href="#DejaVuSans-34"/>
       <use xlink:href="#DejaVuSans-35" transform="translate(63.623047 0)"/>
       <use xlink:href="#DejaVuSans-b0" transform="translate(127.246094 0)"/>
      </g>
     </g>
    </g>
    <g id="xtick_3">
     <g id="line2d_3">
      <path d="M 263.434375 251.186406 
L 263.434375 29.426406 
" clip-path="url(#p0d85d802d4)" style="fill: none; stroke: #b0b0b0; stroke-width: 0.8; stroke-linecap: square"/>
     </g>
     <g id="text_3">
      <!-- 90° -->
      <g transform="translate(248.368125 20.117344) scale(0.17 -0.17)">
       <defs>
        <path id="DejaVuSans-39" d="M 703 97 
L 703 672 
Q 941 559 1184 500 
Q 1428 441 1663 441 
Q 2288 441 2617 861 
Q 2947 1281 2994 2138 
Q 2813 1869 2534 1725 
Q 2256 1581 1919 1581 
Q 1219 1581 811 2004 
Q 403 2428 403 3163 
Q 403 3881 828 4315 
Q 1253 4750 1959 4750 
Q 2769 4750 3195 4129 
Q 3622 3509 3622 2328 
Q 3622 1225 3098 567 
Q 2575 -91 1691 -91 
Q 1453 -91 1209 -44 
Q 966 3 703 97 
z
M 1959 2075 
Q 2384 2075 2632 2365 
Q 2881 2656 2881 3163 
Q 2881 3666 2632 3958 
Q 2384 4250 1959 4250 
Q 1534 4250 1286 3958 
Q 1038 3666 1038 3163 
Q 1038 2656 1286 2365 
Q 1534 2075 1959 2075 
z
" transform="scale(0.015625)"/>
       </defs>
       <use xlink:href="#DejaVuSans-39"/>
       <use xlink:href="#DejaVuSans-30" transform="translate(63.623047 0)"/>
       <use xlink:href="#DejaVuSans-b0" transform="translate(127.246094 0)"/>
      </g>
     </g>
    </g>
    <g id="xtick_4">
     <g id="line2d_4">
      <path d="M 263.434375 251.186406 
L 106.626375 94.378406 
" clip-path="url(#p0d85d802d4)" style="fill: none; stroke: #b0b0b0; stroke-width: 0.8; stroke-linecap: square"/>
     </g>
     <g id="text_4">
      <!-- 135° -->
      <g transform="translate(76.252505 89.169849) scale(0.17 -0.17)">
       <defs>
        <path id="DejaVuSans-31" d="M 794 531 
L 1825 531 
L 1825 4091 
L 703 3866 
L 703 4441 
L 1819 4666 
L 2450 4666 
L 2450 531 
L 3481 531 
L 3481 0 
L 794 0 
L 794 531 
z
" transform="scale(0.015625)"/>
        <path id="DejaVuSans-33" d="M 2597 2516 
Q 3050 2419 3304 2112 
Q 3559 1806 3559 1356 
Q 3559 666 3084 287 
Q 2609 -91 1734 -91 
Q 1441 -91 1130 -33 
Q 819 25 488 141 
L 488 750 
Q 750 597 1062 519 
Q 1375 441 1716 441 
Q 2309 441 2620 675 
Q 2931 909 2931 1356 
Q 2931 1769 2642 2001 
Q 2353 2234 1838 2234 
L 1294 2234 
L 1294 2753 
L 1863 2753 
Q 2328 2753 2575 2939 
Q 2822 3125 2822 3475 
Q 2822 3834 2567 4026 
Q 2313 4219 1838 4219 
Q 1578 4219 1281 4162 
Q 984 4106 628 3988 
L 628 4550 
Q 988 4650 1302 4700 
Q 1616 4750 1894 4750 
Q 2613 4750 3031 4423 
Q 3450 4097 3450 3541 
Q 3450 3153 3228 2886 
Q 3006 2619 2597 2516 
z
" transform="scale(0.015625)"/>
       </defs>
       <use xlink:href="#DejaVuSans-31"/>
       <use xlink:href="#DejaVuSans-33" transform="translate(63.623047 0)"/>
       <use xlink:href="#DejaVuSans-35" transform="translate(127.246094 0)"/>
       <use xlink:href="#DejaVuSans-b0" transform="translate(190.869141 0)"/>
      </g>
     </g>
    </g>
    <g id="xtick_5">
     <g id="line2d_5">
      <path d="M 263.434375 251.186406 
L 41.674375 251.186406 
" clip-path="url(#p0d85d802d4)" style="fill: none; stroke: #b0b0b0; stroke-width: 0.8; stroke-linecap: square"/>
     </g>
     <g id="text_5">
      <!-- 180° -->
      <g transform="translate(7.2 255.877344) scale(0.17 -0.17)">
       <defs>
        <path id="DejaVuSans-38" d="M 2034 2216 
Q 1584 2216 1326 1975 
Q 1069 1734 1069 1313 
Q 1069 891 1326 650 
Q 1584 409 2034 409 
Q 2484 409 2743 651 
Q 3003 894 3003 1313 
Q 3003 1734 2745 1975 
Q 2488 2216 2034 2216 
z
M 1403 2484 
Q 997 2584 770 2862 
Q 544 3141 544 3541 
Q 544 4100 942 4425 
Q 1341 4750 2034 4750 
Q 2731 4750 3128 4425 
Q 3525 4100 3525 3541 
Q 3525 3141 3298 2862 
Q 3072 2584 2669 2484 
Q 3125 2378 3379 2068 
Q 3634 1759 3634 1313 
Q 3634 634 3220 271 
Q 2806 -91 2034 -91 
Q 1263 -91 848 271 
Q 434 634 434 1313 
Q 434 1759 690 2068 
Q 947 2378 1403 2484 
z
M 1172 3481 
Q 1172 3119 1398 2916 
Q 1625 2713 2034 2713 
Q 2441 2713 2670 2916 
Q 2900 3119 2900 3481 
Q 2900 3844 2670 4047 
Q 2441 4250 2034 4250 
Q 1625 4250 1398 4047 
Q 1172 3844 1172 3481 
z
" transform="scale(0.015625)"/>
       </defs>
       <use xlink:href="#DejaVuSans-31"/>
       <use xlink:href="#DejaVuSans-38" transform="translate(63.623047 0)"/>
       <use xlink:href="#DejaVuSans-30" transform="translate(127.246094 0)"/>
       <use xlink:href="#DejaVuSans-b0" transform="translate(190.869141 0)"/>
      </g>
     </g>
    </g>
    <g id="xtick_6">
     <g id="line2d_6">
      <path d="M 263.434375 251.186406 
L 106.626375 407.994406 
" clip-path="url(#p0d85d802d4)" style="fill: none; stroke: #b0b0b0; stroke-width: 0.8; stroke-linecap: square"/>
     </g>
     <g id="text_6">
      <!-- 225° -->
      <g transform="translate(76.252505 422.584838) scale(0.17 -0.17)">
       <defs>
        <path id="DejaVuSans-32" d="M 1228 531 
L 3431 531 
L 3431 0 
L 469 0 
L 469 531 
Q 828 903 1448 1529 
Q 2069 2156 2228 2338 
Q 2531 2678 2651 2914 
Q 2772 3150 2772 3378 
Q 2772 3750 2511 3984 
Q 2250 4219 1831 4219 
Q 1534 4219 1204 4116 
Q 875 4013 500 3803 
L 500 4441 
Q 881 4594 1212 4672 
Q 1544 4750 1819 4750 
Q 2544 4750 2975 4387 
Q 3406 4025 3406 3419 
Q 3406 3131 3298 2873 
Q 3191 2616 2906 2266 
Q 2828 2175 2409 1742 
Q 1991 1309 1228 531 
z
" transform="scale(0.015625)"/>
       </defs>
       <use xlink:href="#DejaVuSans-32"/>
       <use xlink:href="#DejaVuSans-32" transform="translate(63.623047 0)"/>
       <use xlink:href="#DejaVuSans-35" transform="translate(127.246094 0)"/>
       <use xlink:href="#DejaVuSans-b0" transform="translate(190.869141 0)"/>
      </g>
     </g>
    </g>
    <g id="xtick_7">
     <g id="line2d_7">
      <path d="M 263.434375 251.186406 
L 263.434375 472.946406 
" clip-path="url(#p0d85d802d4)" style="fill: none; stroke: #b0b0b0; stroke-width: 0.8; stroke-linecap: square"/>
     </g>
     <g id="text_7">
      <!-- 270° -->
      <g transform="translate(242.96 491.637344) scale(0.17 -0.17)">
       <defs>
        <path id="DejaVuSans-37" d="M 525 4666 
L 3525 4666 
L 3525 4397 
L 1831 0 
L 1172 0 
L 2766 4134 
L 525 4134 
L 525 4666 
z
" transform="scale(0.015625)"/>
       </defs>
       <use xlink:href="#DejaVuSans-32"/>
       <use xlink:href="#DejaVuSans-37" transform="translate(63.623047 0)"/>
       <use xlink:href="#DejaVuSans-30" transform="translate(127.246094 0)"/>
       <use xlink:href="#DejaVuSans-b0" transform="translate(190.869141 0)"/>
      </g>
     </g>
    </g>
    <g id="xtick_8">
     <g id="line2d_8">
      <path d="M 263.434375 251.186406 
L 420.242375 407.994406 
" clip-path="url(#p0d85d802d4)" style="fill: none; stroke: #b0b0b0; stroke-width: 0.8; stroke-linecap: square"/>
     </g>
     <g id="text_8">
      <!-- 315° -->
      <g transform="translate(409.667495 422.584838) scale(0.17 -0.17)">
       <use xlink:href="#DejaVuSans-33"/>
       <use xlink:href="#DejaVuSans-31" transform="translate(63.623047 0)"/>
       <use xlink:href="#DejaVuSans-35" transform="translate(127.246094 0)"/>
       <use xlink:href="#DejaVuSans-b0" transform="translate(190.869141 0)"/>
      </g>
     </g>
    </g>
   </g>
   <g id="matplotlib.axis_2">
    <g id="ytick_1">
     <g id="line2d_9">
      <path d="M 347.950369 251.186406 
C 347.950369 240.087868 345.764199 229.097248 341.516972 218.843536 
C 337.269745 208.589823 331.044059 199.272426 323.196207 191.424574 
C 315.348355 183.576722 306.030958 177.351036 295.777246 173.103809 
C 285.523533 168.856583 274.532914 166.670412 263.434375 166.670412 
C 252.335836 166.670412 241.345217 168.856583 231.091504 173.103809 
C 220.837792 177.351036 211.520395 183.576722 203.672543 191.424574 
C 195.824691 199.272426 189.599005 208.589823 185.351778 218.843536 
C 181.104551 229.097248 178.918381 240.087868 178.918381 251.186406 
C 178.918381 262.284945 181.104551 273.275564 185.351778 283.529277 
C 189.599005 293.78299 195.824691 303.100387 203.672543 310.948239 
C 211.520395 318.796091 220.837792 325.021776 231.091504 329.269003 
C 241.345217 333.51623 252.335836 335.7024 263.434375 335.7024 
C 274.532914 335.7024 285.523533 333.51623 295.777246 329.269003 
C 306.030958 325.021776 315.348355 318.796091 323.196207 310.948239 
C 331.044059 303.100387 337.269745 293.78299 341.516972 283.529277 
C 345.764199 273.275564 347.950369 262.284945 347.950369 251.186406 
" clip-path="url(#p0d85d802d4)" style="fill: none; stroke: #b0b0b0; stroke-width: 0.8; stroke-linecap: square"/>
     </g>
     <g id="text_9">
      <!-- 2.5 -->
      <g transform="translate(341.516972 214.268223) scale(0.22 -0.22)">
       <defs>
        <path id="DejaVuSans-2e" d="M 684 794 
L 1344 794 
L 1344 0 
L 684 0 
L 684 794 
z
" transform="scale(0.015625)"/>
       </defs>
       <use xlink:href="#DejaVuSans-32"/>
       <use xlink:href="#DejaVuSans-2e" transform="translate(63.623047 0)"/>
       <use xlink:href="#DejaVuSans-35" transform="translate(95.410156 0)"/>
      </g>
     </g>
    </g>
    <g id="ytick_2">
     <g id="line2d_10">
      <path d="M 432.466363 251.186406 
C 432.466363 228.989329 428.094022 207.00809 419.599569 186.500665 
C 411.105115 165.99324 398.653744 147.358445 382.95804 131.662742 
C 367.262336 115.967038 348.627542 103.515666 328.120116 95.021213 
C 307.612691 86.526759 285.631452 82.154419 263.434375 82.154419 
C 241.237298 82.154419 219.256059 86.526759 198.748634 95.021213 
C 178.241208 103.515666 159.606414 115.967038 143.91071 131.662742 
C 128.215006 147.358445 115.763635 165.99324 107.269181 186.500665 
C 98.774728 207.00809 94.402387 228.989329 94.402387 251.186406 
C 94.402387 273.383483 98.774728 295.364722 107.269181 315.872147 
C 115.763635 336.379573 128.215006 355.014367 143.91071 370.710071 
C 159.606414 386.405775 178.241208 398.857146 198.748634 407.3516 
C 219.256059 415.846054 241.237298 420.218394 263.434375 420.218394 
C 285.631452 420.218394 307.612691 415.846054 328.120116 407.3516 
C 348.627542 398.857146 367.262336 386.405775 382.95804 370.710071 
C 398.653744 355.014367 411.105115 336.379573 419.599569 315.872147 
C 428.094022 295.364722 432.466363 273.383483 432.466363 251.186406 
" clip-path="url(#p0d85d802d4)" style="fill: none; stroke: #b0b0b0; stroke-width: 0.8; stroke-linecap: square"/>
     </g>
     <g id="text_10">
      <!-- 5 -->
      <g transform="translate(419.599569 181.925353) scale(0.22 -0.22)">
       <use xlink:href="#DejaVuSans-35"/>
      </g>
     </g>
    </g>
   </g>
   <g id="line2d_11">
    <path d="M 310.94535 251.186406 
L 279.105539 235.515242 
L 263.434375 201.292086 
L 203.690288 191.44232 
L 174.79925 251.186406 
L 231.915045 282.705736 
L 263.434375 294.414537 
L 321.61709 309.369121 
L 310.94535 251.186406 
" clip-path="url(#p0d85d802d4)" style="fill: none; stroke: #009e73; stroke-width: 2.5; stroke-linecap: square"/>
   </g>
   <g id="line2d_12">
    <path d="M 329.301223 251.186406 
L 296.963242 217.657539 
L 263.434375 140.95136 
L 139.502516 127.254547 
L 104.821623 251.186406 
L 222.569762 292.051019 
L 263.434375 302.80337 
L 331.189572 318.941604 
L 329.301223 251.186406 
" clip-path="url(#p0d85d802d4)" style="fill: none; stroke: #0072b2; stroke-width: 2.5; stroke-linecap: square"/>
   </g>
  </g>
 </g>
 <defs>
  <clipPath id="p0d85d802d4">
   <path d="M 485.194375 251.186406 
C 485.194375 222.06515 479.458122 193.227061 468.3139 166.322528 
C 457.169678 139.417996 440.834213 114.970244 420.242375 94.378406 
C 399.650537 73.786569 375.202786 57.451103 348.298253 46.306881 
C 321.39372 35.162659 292.555631 29.426406 263.434375 29.426406 
C 234.313119 29.426406 205.47503 35.162659 178.570497 46.306881 
C 151.665964 57.451103 127.218213 73.786569 106.626375 94.378406 
C 86.034537 114.970244 69.699072 139.417996 58.55485 166.322528 
C 47.410628 193.227061 41.674375 222.06515 41.674375 251.186406 
C 41.674375 280.307663 47.410628 309.145751 58.55485 336.050284 
C 69.699072 362.954817 86.034537 387.402568 106.626375 407.994406 
C 127.218213 428.586244 151.665964 444.921709 178.570497 456.065931 
C 205.47503 467.210154 234.313119 472.946406 263.434375 472.946406 
C 292.555631 472.946406 321.39372 467.210154 348.298253 456.065931 
C 375.202786 444.921709 399.650537 428.586244 420.242375 407.994406 
C 440.834213 387.402568 457.169678 362.954817 468.3139 336.050284 
C 479.458122 309.145751 485.194375 280.307663 485.194375 251.186406 
M 263.434375 251.186406 
C 263.434375 251.186406 263.434375 251.186406 263.434375 251.186406 
C 263.434375 251.186406 263.434375 251.186406 263.434375 251.186406 
C 263.434375 251.186406 263.434375 251.186406 263.434375 251.186406 
C 263.434375 251.186406 263.434375 251.186406 263.434375 251.186406 
C 263.434375 251.186406 263.434375 251.186406 263.434375 251.186406 
C 263.434375 251.186406 263.434375 251.186406 263.434375 251.186406 
C 263.434375 251.186406 263.434375 251.186406 263.434375 251.186406 
C 263.434375 251.186406 263.434375 251.186406 263.434375 251.186406 
C 263.434375 251.186406 263.434375 251.186406 263.434375 251.186406 
C 263.434375 251.186406 263.434375 251.186406 263.434375 251.186406 
C 263.434375 251.186406 263.434375 251.186406 263.434375 251.186406 
C 263.434375 251.186406 263.434375 251.186406 263.434375 251.186406 
C 263.434375 251.186406 263.434375 251.186406 263.434375 251.186406 
C 263.434375 251.186406 263.434375 251.186406 263.434375 251.186406 
C 263.434375 251.186406 263.434375 251.186406 263.434375 251.186406 
C 263.434375 251.186406 263.434375 251.186406 263.434375 251.186406 
z
"/>
  </clipPath>
 </defs>
</svg>
