<?xml version="1.0" encoding="utf-8" standalone="no"?>
<!DOCTYPE svg PUBLIC "-//W3C//DTD SVG 1.1//EN"
  "http://www.w3.org/Graphics/SVG/1.1/DTD/svg11.dtd">
<svg xmlns:xlink="http://www.w3.org/1999/xlink" width="516.0525pt" height="502.372812pt" viewBox="0 0 516.0525 502.372812" xmlns="http://www.w3.org/2000/svg" version="1.1">
 <metadata>
  <rdf:RDF xmlns:dc="http://purl.org/dc/elements/1.1/" xmlns:cc="http://creativecommons.org/ns#" xmlns:rdf="http://www.w3.org/1999/02/22-rdf-syntax-ns#">
   <cc:Work>
    <dc:type rdf:resource="http://purl.org/dc/dcmitype/StillImage"/>
    <dc:date>2026-10-08T14:45:53.408345</dc:date>
    <dc:format>image/svg+xml</dc:format>
    <dc:creator>
     <cc:Agent>
      <dc:title>Matplotlib v3.10.1, https://matplotlib.org/</dc:title>
     </cc:Agent>
    </dc:creator>
   </cc:Work>
  </rdf:RDF>
 </metadata>
 <defs>
  <style type="text/css">*{stroke-linejoin: round; stroke-linecap: butt}</style>
 </defs>
 <g id="figure_1">
  <g id="patch_1">
   <path d="M 0 502.372812 
L 516.0525 502.372812 
L 516.0525 0 
L 0 0 
z
" style="fill: #ffffff"/>
  </g>
  <g id="axes_1">
   <g id="patch_2">
    <path d="M 485.194375 251.186406 
C 485.194375 222.06515 479.458122 193.227061 468.3139 166.322528 
C 457.169678 139.417996 440.834213 114.970244 420.242375 94.378406 
C 399.650537 73.786569 375.202786 57.451103 348.298253 46.306881 
C 321.39372 35.162659 292.555631 29.426406 263.434375 29.426406 
C 234.313119 29.426406 205.47503 35.162659 178.570497 46.306881 
C 151.665964 57.451103 127.218213 73.786569 106.626375 94.378406 
C 86.034537 114.970244 69.699072 139.417996 58.55485 166.322528 
C 47.410628 193.227061 41.674375 222.06515 41.674375 251.186406 
C 41.674375 280.307663 47.410628 309.145751 58.55485 336.050284 
C 69.699072 362.954817 86.034537 387.402568 106.626375 407.994406 
C 127.218213 428.586244 151.665964 444.921709 178.570497 456.065931 
C 205.47503 467.210154 234.313119 472.946406 263.434375 472.946406 
C 292.555631 472.946406 321.39372 467.210154 348.298253 456.065931 
C 375.202786 444.921709 399.650537 428.586244 420.242375 407.994406 
C 440.834213 387.402568 457.169678 362.954817 468.3139 336.050284 
C 479.458122 309.145751 485.194375 280.307663 485.194375 251.186406 
M 263.434375 251.186406 
C 263.434375 251.186406 263.434375 251.186406 263.434375 251.186406 
C 263.434375 251.186406 263.434375 251.186406 263.434375 251.186406 
C 263.434375 251.186406 263.434375 251.186406 263.434375 251.186406 
C 263.434375 251.186406 263.434375 251.186406 263.434375 251.186406 
C 263.434375 251.186406 263.434375 251.186406 263.434375 251.186406 
C 263.434375 251.186406 263.434375 251.186406 263.434375 251.186406 
C 263.434375 251.186406 263.434375 251.186406 263.434375 251.186406 
C 263.434375 251.186406 263.434375 251.186406 263.434375 251.186406 
C 263.434375 251.186406 263.434375 251.186406 263.434375 251.186406 
C 263.434375 251.186406 263.434375 251.186406 263.434375 251.186406 
C 263.434375 251.186406 263.434375 251.186406 263.434375 251.186406 
C 263.434375 251.186406 263.434375 251.186406 263.434375 251.186406 
C 263.434375 251.186406 263.434375 251.186406 263.434375 251.186406 
C 263.434375 251.186406 263.434375 251.186406 263.434375 251.186406 
C 263.434375 251.186406 263.434375 251.186406 263.434375 251.186406 
C 263.434375 251.186406 263.434375 251.186406 263.434375 251.186406 
z
" style="fill: #ffffff"/>
   </g>
   <g id="FillBetweenPolyCollection_1">
    <defs>
     <path id="m2680163460" d="M 301.517056 -251.186406 
L 277.211282 -251.186406 
L 266.414991 -254.167022 
L 263.434375 -264.169933 
L 247.921218 -266.699563 
L 240.326658 -251.186406 
L 256.247552 -243.999583 
L 263.434375 -245.092099 
L 281.773212 -232.847569 
L 277.211282 -251.186406 
L 301.517056 -251.186406 
L 301.517056 -251.186406 
L 292.348987 -222.271795 
L 263.434375 -215.113095 
L 242.630824 -230.382855 
L 209.176295 -251.186406 
L 224.871165 -289.749617 
L 263.434375 -288.170856 
L 287.715509 -275.46754 
L 301.517056 -251.186406 
z
"/>
    </defs>
    <g clip-path="url(#p56146e40e2)">
     <use xlink:href="#m2680163460" x="0" y="502.372812" style="fill: #009e73; fill-opacity: 0.2"/>
    </g>
   </g>
   <g id="FillBetweenPolyCollection_2">
    <defs>
     <path id="m4f327b72ca" d="M 305.601121 -251.186406 
L 286.086328 -251.186406 
L 268.2474 -255.999431 
L 263.434375 -276.493218 
L 228.430201 -286.19058 
L 221.695968 -251.186406 
L 255.419498 -243.171529 
L 263.434375 -236.168755 
L 285.530357 -229.090424 
L 286.086328 -251.186406 
L 305.601121 -251.186406 
L 305.601121 -251.186406 
L 304.64577 -209.975011 
L 263.434375 -217.303441 
L 234.909776 -222.661807 
L 193.439331 -251.186406 
L 205.609896 -309.010885 
L 263.434375 -302.407248 
L 292.405062 -280.157093 
L 305.601121 -251.186406 
z
"/>
    </defs>
    <g clip-path="url(#p56146e40e2)">
     <use xlink:href="#m4f327b72ca" x="0" y="502.372812" style="fill: #0072b2; fill-opacity: 0.2"/>
    </g>
   </g>
   <g id="FillBetweenPolyCollection_3">
    <defs>
     <path id="m9a95dc896e" d="M 311.360211 -251.186406 
L 278.397008 -251.186406 
L 281.11381 -268.865841 
L 263.434375 -285.70455 
L 233.459964 -281.160817 
L 226.594928 -251.186406 
L 256.324921 -244.076952 
L 263.434375 -209.762694 
L 302.582471 -212.03831 
L 278.397008 -251.186406 
L 311.360211 -251.186406 
L 311.360211 -251.186406 
L 401.314695 -113.306086 
L 263.434375 -110.644949 
L 224.361768 -212.113799 
L 163.334473 -251.186406 
L 171.739426 -342.881355 
L 263.434375 -462.386406 
L 354.072605 -341.824636 
L 311.360211 -251.186406 
z
"/>
    </defs>
    <g clip-path="url(#p56146e40e2)">
     <use xlink:href="#m9a95dc896e" x="0" y="502.372812" style="fill: #e69f00; fill-opacity: 0.2"/>
    </g>
   </g>
   <g id="matplotlib.axis_1">
    <g id="xtick_1">
     <g id="line2d_1">
      <path d="M 263.434375 251.186406 
L 485.194375 251.186406 
" clip-path="url(#p56146e40e2)" style="fill: none; stroke: #b0b0b0; stroke-width: 0.8; stroke-linecap: square"/>
     </g>
     <g id="text_1">
      <!-- 0° -->
      <g transform="translate(489.53625 255.877344) scale(0.17 -0.17)">
       <defs>
        <path id="DejaVuSans-30" d="M 2034 4250 
Q 1547 4250 1301 3770 
Q 1056 3291 1056 2328 
Q 1056 1369 1301 889 
Q 1547 409 2034 409 
Q 2525 409 2770 889 
Q 3016 1369 3016 2328 
Q 3016 3291 2770 3770 
Q 2525 4250 2034 4250 
z
M 2034 4750 
Q 2819 4750 3233 4129 
Q 3647 3509 3647 2328 
Q 3647 1150 3233 529 
Q 2819 -91 2034 -91 
Q 1250 -91 836 529 
Q 422 1150 422 2328 
Q 422 3509 836 4129 
Q 1250 4750 2034 4750 
z
" transform="scale(0.015625)"/>
        <path id="DejaVuSans-b0" d="M 1600 4347 
Q 1350 4347 1178 4173 
Q 1006 4000 1006 3750 
Q 1006 3503 1178 3333 
Q 1350 3163 1600 3163 
Q 1850 3163 2022 3333 
Q 2194 3503 2194 3750 
Q 2194 3997 2020 4172 
Q 1847 4347 1600 4347 
z
M 1600 4750 
Q 1800 4750 1984 4673 
Q 2169 4597 2303 4453 
Q 2447 4313 2519 4134 
Q 2591 3956 2591 3750 
Q 2591 3338 2302 3052 
Q 2013 2766 1594 2766 
Q 1172 2766 890 3047 
Q 609 3328 609 3750 
Q 609 4169 896 4459 
Q 1184 4750 1600 4750 
z
" transform="scale(0.015625)"/>
       </defs>
       <use xlink:href="#DejaVuSans-30"/>
       <use xlink:href="#DejaVuSans-b0" transform="translate(63.623047 0)"/>
      </g>
     </g>
    </g>
    <g id="xtick_2">
     <g id="line2d_2">
      <path d="M 263.434375 251.186406 
L 420.242375 94.378406 
" clip-path="url(#p56146e40e2)" style="fill: none; stroke: #b0b0b0; stroke-width: 0.8; stroke-linecap: square"/>
     </g>
     <g id="text_2">
      <!-- 45° -->
      <g transform="translate(415.07562 89.169849) scale(0.17 -0.17)">
       <defs>
        <path id="DejaVuSans-34" d="M 2419 4116 
L 825 1625 
L 2419 1625 
L 2419 4116 
z
M 2253 4666 
L 3047 4666 
L 3047 1625 
L 3713 1625 
L 3713 1100 
L 3047 1100 
L 3047 0 
L 2419 0 
L 2419 1100 
L 313 1100 
L 313 1709 
L 2253 4666 
z
" transform="scale(0.015625)"/>
        <path id="DejaVuSans-35" d="M 691 4666 
L 3169 4666 
L 3169 4134 
L 1269 4134 
L 1269 2991 
Q 1406 3038 1543 3061 
Q 1681 3084 1819 3084 
Q 2600 3084 3056 2656 
Q 3513 2228 3513 1497 
Q 3513 744 3044 326 
Q 2575 -91 1722 -91 
Q 1428 -91 1123 -41 
Q 819 9 494 109 
L 494 744 
Q 775 591 1075 516 
Q 1375 441 1709 441 
Q 2250 441 2565 725 
Q 2881 1009 2881 1497 
Q 2881 1984 2565 2268 
Q 2250 2553 1709 2553 
Q 1456 2553 1204 2497 
Q 953 2441 691 2322 
L 691 4666 
z
" transform="scale(0.015625)"/>
       </defs>
       <use xlink:href="#DejaVuSans-34"/>
       <use xlink:href="#DejaVuSans-35" transform="translate(63.623047 0)"/>
       <use xlink:href="#DejaVuSans-b0" transform="translate(127.246094 0)"/>
      </g>
     </g>
    </g>
    <g id="xtick_3">
     <g id="line2d_3">
      <path d="M 263.434375 251.186406 
L 263.434375 29.426406 
" clip-path="url(#p56146e40e2)" style="fill: none; stroke: #b0b0b0; stroke-width: 0.8; stroke-linecap: square"/>
     </g>
     <g id="text_3">
      <!-- 90° -->
      <g transform="translate(248.368125 20.117344) scale(0.17 -0.17)">
       <defs>
        <path id="DejaVuSans-39" d="M 703 97 
L 703 672 
Q 941 559 1184 500 
Q 1428 441 1663 441 
Q 2288 441 2617 861 
Q 2947 1281 2994 2138 
Q 2813 1869 2534 1725 
Q 2256 1581 1919 1581 
Q 1219 1581 811 2004 
Q 403 2428 403 3163 
Q 403 3881 828 4315 
Q 1253 4750 1959 4750 
Q 2769 4750 3195 4129 
Q 3622 3509 3622 2328 
Q 3622 1225 3098 567 
Q 2575 -91 1691 -91 
Q 1453 -91 1209 -44 
Q 966 3 703 97 
z
M 1959 2075 
Q 2384 2075 2632 2365 
Q 2881 2656 2881 3163 
Q 2881 3666 2632 3958 
Q 2384 4250 1959 4250 
Q 1534 4250 1286 3958 
Q 1038 3666 1038 3163 
Q 1038 2656 1286 2365 
Q 1534 2075 1959 2075 
z
" transform="scale(0.015625)"/>
       </defs>
       <use xlink:href="#DejaVuSans-39"/>
       <use xlink:href="#DejaVuSans-30" transform="translate(63.623047 0)"/>
       <use xlink:href="#DejaVuSans-b0" transform="translate(127.246094 0)"/>
      </g>
     </g>
    </g>
    <g id="xtick_4">
     <g id="line2d_4">
      <path d="M 263.434375 251.186406 
L 106.626375 94.378406 
" clip-path="url(#p56146e40e2)" style="fill: none; stroke: #b0b0b0; stroke-width: 0.8; stroke-linecap: square"/>
     </g>
     <g id="text_4">
      <!-- 135° -->
      <g transform="translate(76.252505 89.169849) scale(0.17 -0.17)">
       <defs>
        <path id="DejaVuSans-31" d="M 794 531 
L 1825 531 
L 1825 4091 
L 703 3866 
L 703 4441 
L 1819 4666 
L 2450 4666 
L 2450 531 
L 3481 531 
L 3481 0 
L 794 0 
L 794 531 
z
" transform="scale(0.015625)"/>
        <path id="DejaVuSans-33" d="M 2597 2516 
Q 3050 2419 3304 2112 
Q 3559 1806 3559 1356 
Q 3559 666 3084 287 
Q 2609 -91 1734 -91 
Q 1441 -91 1130 -33 
Q 819 25 488 141 
L 488 750 
Q 750 597 1062 519 
Q 1375 441 1716 441 
Q 2309 441 2620 675 
Q 2931 909 2931 1356 
Q 2931 1769 2642 2001 
Q 2353 2234 1838 2234 
L 1294 2234 
L 1294 2753 
L 1863 2753 
Q 2328 2753 2575 2939 
Q 2822 3125 2822 3475 
Q 2822 3834 2567 4026 
Q 2313 4219 1838 4219 
Q 1578 4219 1281 4162 
Q 984 4106 628 3988 
L 628 4550 
Q 988 4650 1302 4700 
Q 1616 4750 1894 4750 
Q 2613 4750 3031 4423 
Q 3450 4097 3450 3541 
Q 3450 3153 3228 2886 
Q 3006 2619 2597 2516 
z
" transform="scale(0.015625)"/>
       </defs>
       <use xlink:href="#DejaVuSans-31"/>
       <use xlink:href="#DejaVuSans-33" transform="translate(63.623047 0)"/>
       <use xlink:href="#DejaVuSans-35" transform="translate(127.246094 0)"/>
       <use xlink:href="#DejaVuSans-b0" transform="translate(190.869141 0)"/>
      </g>
     </g>
    </g>
    <g id="xtick_5">
     <g id="line2d_5">
      <path d="M 263.434375 251.186406 
L 41.674375 251.186406 
" clip-path="url(#p56146e40e2)" style="fill: none; stroke: #b0b0b0; stroke-width: 0.8; stroke-linecap: square"/>
     </g>
     <g id="text_5">
      <!-- 180° -->
      <g transform="translate(7.2 255.877344) scale(0.17 -0.17)">
       <defs>
        <path id="DejaVuSans-38" d="M 2034 2216 
Q 1584 2216 1326 1975 
Q 1069 1734 1069 1313 
Q 1069 891 1326 650 
Q 1584 409 2034 409 
Q 2484 409 2743 651 
Q 3003 894 3003 1313 
Q 3003 1734 2745 1975 
Q 2488 2216 2034 2216 
z
M 1403 2484 
Q 997 2584 770 2862 
Q 544 3141 544 3541 
Q 544 4100 942 4425 
Q 1341 4750 2034 4750 
Q 2731 4750 3128 4425 
Q 3525 4100 3525 3541 
Q 3525 3141 3298 2862 
Q 3072 2584 2669 2484 
Q 3125 2378 3379 2068 
Q 3634 1759 3634 1313 
Q 3634 634 3220 271 
Q 2806 -91 2034 -91 
Q 1263 -91 848 271 
Q 434 634 434 1313 
Q 434 1759 690 2068 
Q 947 2378 1403 2484 
z
M 1172 3481 
Q 1172 3119 1398 2916 
Q 1625 2713 2034 2713 
Q 2441 2713 2670 2916 
Q 2900 3119 2900 3481 
Q 2900 3844 2670 4047 
Q 2441 4250 2034 4250 
Q 1625 4250 1398 4047 
Q 1172 3844 1172 3481 
z
" transform="scale(0.015625)"/>
       </defs>
       <use xlink:href="#DejaVuSans-31"/>
       <use xlink:href="#DejaVuSans-38" transform="translate(63.623047 0)"/>
       <use xlink:href="#DejaVuSans-30" transform="translate(127.246094 0)"/>
       <use xlink:href="#DejaVuSans-b0" transform="translate(190.869141 0)"/>
      </g>
     </g>
    </g>
    <g id="xtick_6">
     <g id="line2d_6">
      <path d="M 263.434375 251.186406 
L 106.626375 407.994406 
" clip-path="url(#p56146e40e2)" style="fill: none; stroke: #b0b0b0; stroke-width: 0.8; stroke-linecap: square"/>
     </g>
     <g id="text_6">
      <!-- 225° -->
      <g transform="translate(76.252505 422.584838) scale(0.17 -0.17)">
       <defs>
        <path id="DejaVuSans-32" d="M 1228 531 
L 3431 531 
L 3431 0 
L 469 0 
L 469 531 
Q 828 903 1448 1529 
Q 2069 2156 2228 2338 
Q 2531 2678 2651 2914 
Q 2772 3150 2772 3378 
Q 2772 3750 2511 3984 
Q 2250 4219 1831 4219 
Q 1534 4219 1204 4116 
Q 875 4013 500 3803 
L 500 4441 
Q 881 4594 1212 4672 
Q 1544 4750 1819 4750 
Q 2544 4750 2975 4387 
Q 3406 4025 3406 3419 
Q 3406 3131 3298 2873 
Q 3191 2616 2906 2266 
Q 2828 2175 2409 1742 
Q 1991 1309 1228 531 
z
" transform="scale(0.015625)"/>
       </defs>
       <use xlink:href="#DejaVuSans-32"/>
       <use xlink:href="#DejaVuSans-32" transform="translate(63.623047 0)"/>
       <use xlink:href="#DejaVuSans-35" transform="translate(127.246094 0)"/>
       <use xlink:href="#DejaVuSans-b0" transform="translate(190.869141 0)"/>
      </g>
     </g>
    </g>
    <g id="xtick_7">
     <g id="line2d_7">
      <path d="M 263.434375 251.186406 
L 263.434375 472.946406 
" clip-path="url(#p56146e40e2)" style="fill: none; stroke: #b0b0b0; stroke-width: 0.8; stroke-linecap: square"/>
     </g>
     <g id="text_7">
      <!-- 270° -->
      <g transform="translate(242.96 491.637344) scale(0.17 -0.17)">
       <defs>
        <path id="DejaVuSans-37" d="M 525 4666 
L 3525 4666 
L 3525 4397 
L 1831 0 
L 1172 0 
L 2766 4134 
L 525 4134 
L 525 4666 
z
" transform="scale(0.015625)"/>
       </defs>
       <use xlink:href="#DejaVuSans-32"/>
       <use xlink:href="#DejaVuSans-37" transform="translate(63.623047 0)"/>
       <use xlink:href="#DejaVuSans-30" transform="translate(127.246094 0)"/>
       <use xlink:href="#DejaVuSans-b0" transform="translate(190.869141 0)"/>
      </g>
     </g>
    </g>
    <g id="xtick_8">
     <g id="line2d_8">
      <path d="M 263.434375 251.186406 
L 420.242375 407.994406 
" clip-path="url(#p56146e40e2)" style="fill: none; stroke: #b0b0b0; stroke-width: 0.8; stroke-linecap: square"/>
     </g>
     <g id="text_8">
      <!-- 315° -->
      <g transform="translate(409.667495 422.584838) scale(0.17 -0.17)">
       <use xlink:href="#DejaVuSans-33"/>
       <use xlink:href="#DejaVuSans-31" transform="translate(63.623047 0)"/>
       <use xlink:href="#DejaVuSans-35" transform="translate(127.246094 0)"/>
       <use xlink:href="#DejaVuSans-b0" transform="translate(190.869141 0)"/>
      </g>
     </g>
    </g>
   </g>
   <g id="matplotlib.axis_2">
    <g id="ytick_1">
     <g id="line2d_9">
      <path d="M 308.505673 251.186406 
C 308.505673 245.267698 307.339816 239.406541 305.074825 233.938367 
C 302.809833 228.470194 299.489754 223.501345 295.304595 219.316186 
C 291.119436 215.131027 286.150588 211.810948 280.682414 209.545957 
C 275.21424 207.280965 269.353084 206.115108 263.434375 206.115108 
C 257.515666 206.115108 251.65451 207.280965 246.186336 209.545957 
C 240.718162 211.810948 235.749314 215.131027 231.564155 219.316186 
C 227.378996 223.501345 224.058917 228.470194 221.793925 233.938367 
C 219.528934 239.406541 218.363077 245.267698 218.363077 251.186406 
C 218.363077 257.105115 219.528934 262.966271 221.793925 268.434445 
C 224.058917 273.902619 227.378996 278.871468 231.564155 283.056627 
C 235.749314 287.241786 240.718162 290.561864 246.186336 292.826856 
C 251.65451 295.091848 257.515666 296.257704 263.434375 296.257704 
C 269.353084 296.257704 275.21424 295.091848 280.682414 292.826856 
C 286.150588 290.561864 291.119436 287.241786 295.304595 283.056627 
C 299.489754 278.871468 302.809833 273.902619 305.074825 268.434445 
C 307.339816 262.966271 308.505673 257.105115 308.505673 251.186406 
" clip-path="url(#p56146e40e2)" style="fill: none; stroke: #b0b0b0; stroke-width: 0.8; stroke-linecap: square"/>
     </g>
     <g id="text_9">
      <!-- 2 -->
      <g transform="translate(305.074825 229.363055) scale(0.22 -0.22)">
       <use xlink:href="#DejaVuSans-32"/>
      </g>
     </g>
    </g>
    <g id="ytick_2">
     <g id="line2d_10">
      <path d="M 353.576971 251.186406 
C 353.576971 239.348989 351.245258 227.626676 346.715274 216.690328 
C 342.185291 205.753981 335.545134 195.816284 327.174816 187.445966 
C 318.804498 179.075648 308.8668 172.435491 297.930453 167.905507 
C 286.994105 163.375524 275.271792 161.043811 263.434375 161.043811 
C 251.596958 161.043811 239.874645 163.375524 228.938297 167.905507 
C 218.00195 172.435491 208.064252 179.075648 199.693934 187.445966 
C 191.323616 195.816284 184.683459 205.753981 180.153476 216.690328 
C 175.623492 227.626676 173.291779 239.348989 173.291779 251.186406 
C 173.291779 263.023823 175.623492 274.746137 180.153476 285.682484 
C 184.683459 296.618832 191.323616 306.556529 199.693934 314.926847 
C 208.064252 323.297165 218.00195 329.937322 228.938297 334.467305 
C 239.874645 338.997289 251.596958 341.329002 263.434375 341.329002 
C 275.271792 341.329002 286.994105 338.997289 297.930453 334.467305 
C 308.8668 329.937322 318.804498 323.297165 327.174816 314.926847 
C 335.545134 306.556529 342.185291 296.618832 346.715274 285.682484 
C 351.245258 274.746137 353.576971 263.023823 353.576971 251.186406 
" clip-path="url(#p56146e40e2)" style="fill: none; stroke: #b0b0b0; stroke-width: 0.8; stroke-linecap: square"/>
     </g>
     <g id="text_10">
      <!-- 4 -->
      <g transform="translate(346.715274 212.115016) scale(0.22 -0.22)">
       <use xlink:href="#DejaVuSans-34"/>
      </g>
     </g>
    </g>
   </g>
   <g id="line2d_11">
    <path d="M 289.364169 251.186406 
L 277.06525 237.555531 
L 263.434375 226.202418 
L 236.396191 224.148222 
L 224.751477 251.186406 
L 249.439188 265.181593 
L 263.434375 272.270215 
L 287.061099 274.813131 
L 289.364169 251.186406 
" clip-path="url(#p56146e40e2)" style="fill: none; stroke: #009e73; stroke-width: 2.5; stroke-linecap: square"/>
   </g>
   <g id="line2d_12">
    <path d="M 295.843725 251.186406 
L 280.326231 234.294551 
L 263.434375 212.922579 
L 217.020049 204.77208 
L 207.567649 251.186406 
L 245.164637 269.456144 
L 263.434375 275.636715 
L 295.088063 282.840095 
L 295.843725 251.186406 
" clip-path="url(#p56146e40e2)" style="fill: none; stroke: #0072b2; stroke-width: 2.5; stroke-linecap: square"/>
   </g>
   <g id="line2d_13">
    <path d="M 294.878609 251.186406 
L 317.593207 197.027574 
L 263.434375 128.327335 
L 202.599695 190.351726 
L 194.964701 251.186406 
L 240.343345 274.277437 
L 263.434375 342.168991 
L 351.948583 339.700615 
L 294.878609 251.186406 
" clip-path="url(#p56146e40e2)" style="fill: none; stroke: #e69f00; stroke-width: 2.5; stroke-linecap: square"/>
   </g>
  </g>
 </g>
 <defs>
  <clipPath id="p56146e40e2">
   <path d="M 485.194375 251.186406 
C 485.194375 222.06515 479.458122 193.227061 468.3139 166.322528 
C 457.169678 139.417996 440.834213 114.970244 420.242375 94.378406 
C 399.650537 73.786569 375.202786 57.451103 348.298253 46.306881 
C 321.39372 35.162659 292.555631 29.426406 263.434375 29.426406 
C 234.313119 29.426406 205.47503 35.162659 178.570497 46.306881 
C 151.665964 57.451103 127.218213 73.786569 106.626375 94.378406 
C 86.034537 114.970244 69.699072 139.417996 58.55485 166.322528 
C 47.410628 193.227061 41.674375 222.06515 41.674375 251.186406 
C 41.674375 280.307663 47.410628 309.145751 58.55485 336.050284 
C 69.699072 362.954817 86.034537 387.402568 106.626375 407.994406 
C 127.218213 428.586244 151.665964 444.921709 178.570497 456.065931 
C 205.47503 467.210154 234.313119 472.946406 263.434375 472.946406 
C 292.555631 472.946406 321.39372 467.210154 348.298253 456.065931 
C 375.202786 444.921709 399.650537 428.586244 420.242375 407.994406 
C 440.834213 387.402568 457.169678 362.954817 468.3139 336.050284 
C 479.458122 309.145751 485.194375 280.307663 485.194375 251.186406 
M 263.434375 251.186406 
C 263.434375 251.186406 263.434375 251.186406 263.434375 251.186406 
C 263.434375 251.186406 263.434375 251.186406 263.434375 251.186406 
C 263.434375 251.186406 263.434375 251.186406 263.434375 251.186406 
C 263.434375 251.186406 263.434375 251.186406 263.434375 251.186406 
C 263.434375 251.186406 263.434375 251.186406 263.434375 251.186406 
C 263.434375 251.186406 263.434375 251.186406 263.434375 251.186406 
C 263.434375 251.186406 263.434375 251.186406 263.434375 251.186406 
C 263.434375 251.186406 263.434375 251.186406 263.434375 251.186406 
C 263.434375 251.186406 263.434375 251.186406 263.434375 251.186406 
C 263.434375 251.186406 263.434375 251.186406 263.434375 251.186406 
C 263.434375 251.186406 263.434375 251.186406 263.434375 251.186406 
C 263.434375 251.186406 263.434375 251.186406 263.434375 251.186406 
C 263.434375 251.186406 263.434375 251.186406 263.434375 251.186406 
C 263.434375 251.186406 263.434375 251.186406 263.434375 251.186406 
C 263.434375 251.186406 263.434375 251.186406 263.434375 251.186406 
C 263.434375 251.186406 263.434375 251.186406 263.434375 251.186406 
z
"/>
  </clipPath>
 </defs>
</svg>
